<svg xmlns="http://www.w3.org/2000/svg" version="1.1" viewBox="0.00 0.00 1000.00 653.00" width="1000.00" height="653.00">
<g stroke-width="2.00" fill="none" stroke-linecap="butt">
<path stroke="#858375" d="&#10;  M 438.50 163.37&#10;  Q 437.64 164.26 436.18 164.20&#10;  Q 434.93 164.15 434.15 163.27&#10;  Q 432.49 161.37 432.15 159.72&#10;  C 430.92 153.69 429.01 148.54 430.47 142.43&#10;  Q 431.40 138.52 432.84 134.14&#10;  Q 433.21 133.02 433.76 132.28&#10;  Q 434.71 131.01 434.90 130.48&#10;  Q 435.37 129.16 436.51 127.80&#10;  Q 440.44 123.09 445.03 119.77&#10;  Q 445.85 119.18 446.91 118.86&#10;  C 448.72 118.31 449.75 117.21 451.68 116.73&#10;  Q 458.46 115.03 464.00 114.57&#10;  Q 464.35 114.54 465.36 114.09&#10;  Q 466.10 113.77 466.49 113.28&#10;  Q 467.23 112.33 468.29 111.69&#10;  Q 468.96 111.29 469.90 110.00&#10;  Q 470.73 108.86 472.22 107.97&#10;  Q 472.90 107.56 473.64 106.12&#10;  A 1.75 1.65 -3.0 0 1 474.28 105.45&#10;  Q 476.44 104.19 477.63 102.14&#10;  Q 477.89 101.70 478.33 101.45&#10;  Q 479.89 100.60 480.95 98.86&#10;  Q 481.21 98.42 481.67 98.22&#10;  Q 484.97 96.73 484.29 92.93&#10;  A 0.77 0.76 -88.9 0 0 483.71 92.32&#10;  C 480.29 91.56 476.75 89.86 473.20 89.32&#10;  Q 462.53 87.67 452.58 89.34&#10;  C 449.42 89.87 446.32 91.35 443.68 91.93&#10;  Q 440.82 92.57 439.44 93.44&#10;  Q 438.15 94.24 435.45 95.68&#10;  Q 435.13 95.84 434.96 95.85&#10;  Q 434.83 95.86 434.43 95.89&#10;  Q 434.00 95.93 433.67 96.15&#10;  Q 432.67 96.83 430.72 97.80&#10;  Q 429.39 98.47 427.96 99.70&#10;  Q 423.90 103.21 421.83 105.15&#10;  Q 420.78 106.13 419.27 107.93&#10;  Q 418.65 108.67 416.75 110.73&#10;  Q 413.16 114.61 410.06 121.02&#10;  Q 409.74 121.67 408.61 123.59&#10;  Q 407.89 124.81 407.47 126.34&#10;  Q 406.65 129.33 406.64 129.37&#10;  Q 404.95 134.62 404.70 136.12&#10;  Q 403.96 140.48 403.88 149.17&#10;  Q 403.86 151.16 404.23 153.33&#10;  Q 404.59 155.38 404.67 157.53&#10;  Q 404.78 160.68 405.87 163.64&#10;  Q 406.98 166.64 407.36 168.35&#10;  Q 407.78 170.20 409.18 172.96&#10;  Q 411.19 176.89 413.41 180.28&#10;  Q 415.13 182.92 418.89 186.60&#10;  Q 424.82 192.39 430.55 198.41&#10;  Q 430.62 198.49 430.59 198.56&#10;  Q 430.56 198.64 430.49 198.62&#10;  A 0.20 0.08 54.5 0 0 430.56 198.89&#10;  Q 454.13 222.28 477.38 245.96&#10;  C 479.42 248.04 480.64 250.03 477.43 251.90&#10;  Q 475.28 253.15 473.06 253.76&#10;  Q 472.30 253.97 468.46 254.67&#10;  Q 464.63 255.37 459.74 255.14&#10;  Q 458.61 255.09 457.28 254.80&#10;  Q 455.47 254.39 454.83 254.32&#10;  Q 452.99 254.12 451.27 253.42&#10;  Q 438.01 247.98 432.26 234.55&#10;  Q 432.24 234.49 432.19 234.02&#10;  Q 432.15 233.52 432.08 233.36&#10;  Q 430.02 228.20 429.92 223.04&#10;  Q 429.85 219.94 428.08 218.12&#10;  Q 422.64 212.56 413.04 203.05&#10;  Q 411.30 201.33 410.13 201.10&#10;  Q 407.90 200.66 406.98 203.24&#10;  Q 406.69 204.06 405.67 207.59&#10;  Q 404.93 210.14 404.65 212.05&#10;  Q 402.96 223.65 404.91 233.80&#10;  Q 408.62 253.13 423.35 266.40&#10;  Q 426.12 268.90 428.48 270.40&#10;  Q 430.21 271.48 433.71 273.84&#10;  Q 434.03 274.05 434.36 274.05&#10;  Q 434.83 274.04 435.01 274.48&#10;  Q 435.29 275.21 436.09 275.38&#10;  C 437.74 275.72 439.18 277.06 440.96 277.43&#10;  Q 442.41 277.73 446.89 279.37&#10;  Q 451.34 280.99 457.62 281.55&#10;  Q 463.34 282.07 470.99 281.13&#10;  Q 477.15 280.37 483.29 277.80&#10;  Q 483.47 277.72 483.74 277.76&#10;  Q 484.09 277.79 484.41 277.65&#10;  Q 491.23 274.63 495.15 272.28&#10;  Q 498.91 270.04 504.35 264.60&#10;  Q 522.98 245.98 561.75 207.66&#10;  Q 562.99 206.43 564.08 206.22&#10;  Q 565.78 205.90 567.01 207.14&#10;  Q 567.57 207.71 568.00 209.18&#10;  C 568.53 211.04 569.54 213.01 569.88 214.57&#10;  Q 573.50 231.20 562.83 243.91&#10;  Q 561.83 245.10 560.17 246.60&#10;  Q 557.38 249.12 557.35 249.15&#10;  Q 556.30 250.24 554.93 250.80&#10;  C 552.45 251.82 550.37 253.41 548.15 253.95&#10;  Q 543.72 255.03 539.08 255.42&#10;  Q 534.86 255.77 533.27 257.39&#10;  Q 529.59 261.13 517.21 273.51&#10;  C 516.11 274.61 515.89 276.02 516.62 277.25&#10;  Q 517.04 277.95 518.92 278.56&#10;  Q 533.61 283.32 548.86 280.71&#10;  Q 550.61 280.41 553.12 279.56&#10;  Q 556.48 278.42 557.36 278.21&#10;  Q 559.21 277.78 560.63 277.08&#10;  Q 562.00 276.40 563.76 275.52&#10;  C 564.48 275.16 565.34 275.27 566.02 274.68&#10;  Q 566.91 273.91 566.99 273.86&#10;  Q 570.04 271.96 573.10 270.10&#10;  Q 574.39 269.32 580.37 263.52&#10;  Q 584.39 259.62 586.71 256.08&#10;  Q 592.77 246.81 594.86 238.67&#10;  Q 601.41 213.21 588.46 191.60&#10;  Q 585.66 186.93 580.52 181.74&#10;  Q 527.21 127.89 524.30 124.97&#10;  Q 521.18 121.84 521.55 120.16&#10;  Q 521.80 119.01 523.34 118.25&#10;  Q 526.54 116.68 527.44 116.45&#10;  Q 536.49 114.20 544.57 115.27&#10;  Q 548.04 115.72 554.92 119.18&#10;  Q 557.24 120.34 559.59 122.85&#10;  Q 561.41 124.79 563.65 126.97&#10;  Q 564.60 127.89 565.38 129.45&#10;  Q 566.54 131.73 566.98 132.20&#10;  Q 567.41 132.65 567.52 133.36&#10;  Q 567.62 133.95 567.98 134.48&#10;  Q 568.51 135.25 568.75 136.13&#10;  C 569.31 138.08 570.41 140.32 570.66 142.78&#10;  Q 570.87 144.85 571.35 149.55&#10;  A 3.83 3.82 19.6 0 0 572.45 151.86&#10;  L 588.77 168.18&#10;  A 3.22 3.22 0.0 0 0 594.19 166.58&#10;  Q 595.17 162.04 595.44 160.97&#10;  C 597.18 154.30 597.38 147.18 596.62 140.23&#10;  Q 595.75 132.28 592.96 125.71&#10;  Q 583.60 103.67 561.47 93.26&#10;  C 558.81 92.01 555.64 91.47 552.79 90.50&#10;  Q 550.11 89.58 546.08 89.02&#10;  Q 535.38 87.51 525.63 89.81&#10;  C 522.76 90.48 519.35 92.00 516.15 92.74&#10;  Q 514.50 93.12 512.98 94.12&#10;  Q 511.88 94.84 509.70 95.33&#10;  Q 509.21 95.44 508.83 95.78&#10;  Q 506.68 97.73 503.25 99.19&#10;  A 2.15 2.10 7.7 0 0 502.47 99.77&#10;  Q 501.49 100.94 500.30 101.52&#10;  Q 499.83 101.75 499.55 102.18&#10;  Q 498.13 104.38 496.61 105.71&#10;  Q 493.57 108.38 493.52 108.43&#10;  Q 490.46 111.49 489.83 112.06&#10;  Q 488.85 112.95 488.47 113.71&#10;  Q 487.99 114.67 486.95 115.24&#10;  Q 485.92 115.79 484.54 117.26&#10;  Q 479.44 122.66 477.51 124.26&#10;  Q 475.69 125.77 474.41 127.17&#10;  Q 472.13 129.68 471.51 130.26&#10;  Q 468.47 133.08 465.38 136.19&#10;  Q 452.37 149.28 439.15 162.15&#10;  Q 439.04 162.27 438.96 162.56&#10;  Q 438.83 163.02 438.50 163.37"/>
<path stroke="#858375" d="&#10;  M 626.56 358.01&#10;  Q 625.07 358.39 621.02 361.30&#10;  Q 612.94 367.12 612.38 368.02&#10;  Q 612.32 368.12 612.16 368.11&#10;  Q 612.12 368.11 612.04 368.13&#10;  Q 611.96 368.14 611.83 368.26&#10;  Q 607.72 371.97 605.18 375.14&#10;  Q 601.24 380.05 596.70 387.37&#10;  Q 595.26 389.68 594.93 390.64&#10;  Q 594.19 392.77 593.33 394.00&#10;  Q 592.16 395.69 591.25 399.13&#10;  Q 590.93 400.34 589.33 404.83&#10;  Q 588.69 406.60 588.40 408.52&#10;  Q 588.10 410.48 587.69 412.29&#10;  Q 583.96 428.81 588.04 446.70&#10;  Q 589.95 455.08 591.39 457.93&#10;  Q 591.65 458.46 591.67 459.14&#10;  Q 591.69 459.94 591.95 460.37&#10;  Q 593.59 463.07 594.42 465.15&#10;  Q 595.20 467.12 596.87 469.74&#10;  Q 603.84 480.74 606.78 483.58&#10;  Q 611.56 488.20 615.61 492.08&#10;  Q 616.30 492.74 618.99 494.35&#10;  Q 621.37 495.76 623.26 497.26&#10;  Q 623.86 497.73 625.77 498.68&#10;  Q 627.32 499.44 628.19 500.30&#10;  Q 629.21 501.31 631.00 501.73&#10;  Q 632.33 502.03 633.88 502.85&#10;  Q 635.37 503.63 636.70 504.33&#10;  Q 638.16 505.11 639.89 505.48&#10;  Q 641.99 505.94 643.10 506.36&#10;  Q 650.14 509.06 652.13 509.28&#10;  Q 655.46 509.67 661.40 510.35&#10;  Q 675.61 511.99 690.47 509.12&#10;  Q 696.52 507.96 701.46 505.90&#10;  Q 701.47 505.89 702.40 505.73&#10;  Q 702.61 505.69 703.01 505.53&#10;  Q 713.87 501.09 721.82 494.80&#10;  Q 733.93 485.22 741.82 471.98&#10;  Q 742.17 471.39 741.60 470.99&#10;  L 714.70 452.24&#10;  Q 714.25 451.93 713.93 452.37&#10;  Q 713.12 453.50 712.39 454.65&#10;  Q 709.12 459.80 706.39 462.37&#10;  Q 703.15 465.41 702.93 465.66&#10;  Q 701.68 467.05 700.16 467.85&#10;  Q 699.13 468.40 697.26 469.95&#10;  C 696.28 470.77 694.60 471.09 693.34 471.95&#10;  Q 690.54 473.85 687.38 474.86&#10;  Q 669.08 480.68 652.05 473.95&#10;  Q 642.48 470.16 635.70 462.84&#10;  Q 627.29 453.77 624.14 441.64&#10;  Q 623.64 439.69 623.38 437.08&#10;  Q 623.02 433.37 622.88 432.48&#10;  Q 621.93 426.35 623.82 418.78&#10;  Q 623.96 418.19 623.72 417.69&#10;  A 1.21 1.21 0.0 0 1 623.65 416.78&#10;  Q 625.99 408.95 629.41 402.43&#10;  Q 630.21 400.90 631.70 399.04&#10;  C 633.97 396.21 636.08 393.39 638.45 391.33&#10;  Q 649.28 381.89 662.99 379.92&#10;  Q 676.16 378.03 689.89 383.78&#10;  Q 694.63 385.76 698.06 388.46&#10;  Q 702.36 391.83 705.22 394.88&#10;  Q 705.39 395.07 709.79 400.24&#10;  Q 709.88 400.34 709.97 400.68&#10;  C 710.18 401.37 710.25 401.78 710.74 402.25&#10;  Q 712.01 403.44 712.84 405.02&#10;  Q 713.05 405.42 713.43 405.17&#10;  L 741.06 385.99&#10;  A 0.86 0.86 0.0 0 0 741.30 384.84&#10;  Q 733.32 371.98 722.74 363.02&#10;  Q 717.10 358.25 708.90 354.35&#10;  Q 696.32 348.37 682.97 346.88&#10;  Q 667.57 345.15 652.57 347.86&#10;  Q 648.97 348.51 644.87 350.00&#10;  Q 642.67 350.79 640.44 351.36&#10;  Q 637.32 352.15 636.04 353.01&#10;  Q 634.18 354.27 632.25 354.82&#10;  Q 628.96 355.76 627.35 357.53&#10;  Q 627.03 357.89 626.56 358.01"/>
<path stroke="#858375" d="&#10;  M 314.87 460.76&#10;  L 314.87 461.22&#10;  Q 314.87 461.46 314.97 461.67&#10;  L 335.77 507.51&#10;  Q 335.99 508.00 336.53 508.00&#10;  L 358.83 508.00&#10;  A 1.02 1.00 -77.7 0 0 359.75 507.40&#10;  L 402.51 412.86&#10;  Q 402.55 412.76 402.55 412.87&#10;  L 402.55 507.50&#10;  Q 402.55 507.99 403.05 507.99&#10;  L 437.51 507.99&#10;  Q 438.00 507.99 438.00 507.49&#10;  L 438.00 349.77&#10;  A 0.36 0.35 -90.0 0 0 437.65 349.41&#10;  L 395.02 349.41&#10;  Q 394.55 349.41 394.47 349.88&#10;  Q 394.37 350.47 394.13 350.99&#10;  Q 391.43 356.89 359.95 427.76&#10;  Q 357.49 433.30 357.47 433.34&#10;  Q 356.14 435.86 355.03 438.89&#10;  Q 354.21 441.14 352.33 444.43&#10;  Q 352.18 444.70 352.09 445.15&#10;  Q 351.93 445.90 351.91 445.96&#10;  Q 350.11 449.74 348.50 453.98&#10;  Q 348.30 454.50 348.07 453.99&#10;  L 301.83 349.85&#10;  Q 301.64 349.41 301.17 349.41&#10;  L 259.20 349.41&#10;  Q 258.56 349.41 258.56 350.05&#10;  L 258.56 507.40&#10;  Q 258.56 507.99 259.15 507.99&#10;  L 292.93 507.99&#10;  Q 293.14 507.99 293.14 507.78&#10;  L 293.39 415.79&#10;  Q 293.40 413.89 294.18 415.63&#10;  L 313.53 458.22&#10;  Q 313.89 459.00 313.93 459.19&#10;  Q 314.12 460.12 314.79 460.61&#10;  Q 314.87 460.66 314.87 460.76"/>
<path stroke="#858375" d="&#10;  M 573.62 475.85&#10;  A 0.31 0.31 0.0 0 0 573.31 475.54&#10;  L 493.52 475.54&#10;  A 0.31 0.31 0.0 0 1 493.21 475.23&#10;  L 493.21 443.43&#10;  A 0.31 0.31 0.0 0 1 493.52 443.12&#10;  L 567.10 443.12&#10;  A 0.31 0.31 0.0 0 0 567.41 442.81&#10;  L 567.41 411.98&#10;  A 0.31 0.31 0.0 0 0 567.10 411.67&#10;  L 493.52 411.67&#10;  A 0.31 0.31 0.0 0 1 493.21 411.36&#10;  L 493.21 381.98&#10;  A 0.31 0.31 0.0 0 1 493.52 381.67&#10;  L 573.10 381.67&#10;  A 0.31 0.31 0.0 0 0 573.41 381.36&#10;  L 573.41 349.73&#10;  A 0.31 0.31 0.0 0 0 573.10 349.42&#10;  L 457.54 349.42&#10;  A 0.31 0.31 0.0 0 0 457.23 349.73&#10;  L 457.23 507.68&#10;  A 0.31 0.31 0.0 0 0 457.54 507.99&#10;  L 573.31 507.99&#10;  A 0.31 0.31 0.0 0 0 573.62 507.68&#10;  L 573.62 475.85"/>
<path stroke="#858375" d="&#10;  M 371.48 557.25&#10;  Q 368.39 557.77 366.46 555.15&#10;  C 365.33 553.62 365.32 549.68 365.89 548.18&#10;  Q 367.35 544.31 371.21 544.58&#10;  C 373.24 544.72 373.93 545.63 375.03 547.41&#10;  Q 375.56 548.27 376.38 547.92&#10;  Q 376.85 547.72 376.77 547.21&#10;  Q 376.28 544.15 373.32 543.30&#10;  Q 366.14 541.22 363.71 547.81&#10;  Q 362.28 551.72 364.36 555.80&#10;  C 366.02 559.03 369.65 559.66 372.76 558.75&#10;  Q 376.09 557.77 377.04 553.87&#10;  Q 377.16 553.38 376.68 553.21&#10;  Q 376.17 553.01 375.62 553.08&#10;  Q 375.06 553.15 374.86 553.68&#10;  Q 373.64 556.89 371.48 557.25"/>
<path stroke="#858375" d="&#10;  M 403.13 547.28&#10;  C 403.35 545.94 403.52 544.96 405.16 544.56&#10;  Q 409.03 543.63 410.83 547.51&#10;  Q 411.01 547.90 411.72 547.84&#10;  Q 412.25 547.79 412.29 547.25&#10;  Q 412.49 544.01 408.90 543.10&#10;  C 405.54 542.25 401.37 543.02 401.00 547.06&#10;  C 400.64 551.05 405.27 551.50 409.05 552.46&#10;  Q 410.51 552.83 410.90 554.13&#10;  A 2.01 2.01 0.0 0 1 410.09 556.37&#10;  Q 407.85 557.89 404.48 557.06&#10;  Q 403.98 556.94 403.70 556.51&#10;  Q 403.35 555.96 402.55 554.49&#10;  Q 402.25 553.95 401.88 553.83&#10;  Q 401.45 553.69 401.06 553.76&#10;  Q 400.47 553.85 400.53 554.44&#10;  Q 400.95 558.90 406.36 559.14&#10;  Q 409.09 559.27 410.74 558.32&#10;  Q 412.68 557.20 412.84 554.85&#10;  Q 413.00 552.45 411.31 551.18&#10;  Q 410.46 550.54 407.88 549.96&#10;  Q 405.78 549.48 404.08 548.89&#10;  A 1.46 1.45 -75.8 0 1 403.13 547.28"/>
<path stroke="#858375" d="&#10;  M 514.28 557.24&#10;  Q 511.19 557.78 509.24 555.17&#10;  C 508.10 553.65 508.06 549.71 508.62 548.21&#10;  Q 510.05 544.33 513.91 544.57&#10;  C 515.94 544.70 516.64 545.60 517.75 547.37&#10;  Q 518.29 548.23 519.11 547.87&#10;  Q 519.57 547.67 519.49 547.16&#10;  Q 518.98 544.10 516.01 543.27&#10;  Q 508.82 541.25 506.44 547.86&#10;  Q 505.04 551.78 507.15 555.84&#10;  C 508.83 559.06 512.47 559.66 515.57 558.72&#10;  Q 518.89 557.72 519.81 553.81&#10;  Q 519.93 553.32 519.45 553.16&#10;  Q 518.94 552.96 518.39 553.03&#10;  Q 517.83 553.11 517.63 553.64&#10;  Q 516.44 556.86 514.28 557.24"/>
<path stroke="#858375" d="&#10;  M 531.9357 559.2975&#10;  A 8.36 7.76 91.4 0 0 539.8977 551.1296&#10;  A 8.36 7.76 91.4 0 0 532.3443 542.5825&#10;  A 8.36 7.76 91.4 0 0 524.3823 550.7504&#10;  A 8.36 7.76 91.4 0 0 531.9357 559.2975"/>
<path stroke="#858375" d="&#10;  M 587.8455 559.2700&#10;  A 8.33 7.77 90.1 0 0 595.6300 550.9536&#10;  A 8.33 7.77 90.1 0 0 587.8745 542.6100&#10;  A 8.33 7.77 90.1 0 0 580.0900 550.9264&#10;  A 8.33 7.77 90.1 0 0 587.8455 559.2700"/>
<path stroke="#858375" d="&#10;  M 668.6218 559.2794&#10;  A 8.33 7.76 89.3 0 0 676.2794 550.8552&#10;  A 8.33 7.76 89.3 0 0 668.4182 542.6206&#10;  A 8.33 7.76 89.3 0 0 660.7606 551.0448&#10;  A 8.33 7.76 89.3 0 0 668.6218 559.2794"/>
<path stroke="#858375" d="&#10;  M 333.61 554.16&#10;  Q 335.15 554.18 336.25 554.20&#10;  Q 336.84 554.21 337.03 554.77&#10;  L 338.10 558.05&#10;  A 1.15 1.15 0.0 0 0 339.12 558.84&#10;  Q 339.43 558.86 339.57 558.87&#10;  Q 340.58 558.95 340.25 558.00&#10;  Q 338.53 552.94 335.35 544.15&#10;  Q 335.14 543.57 334.76 543.34&#10;  Q 334.31 543.08 333.74 543.07&#10;  Q 333.14 543.07 332.68 543.32&#10;  Q 332.29 543.54 332.07 544.12&#10;  Q 328.72 552.85 326.90 557.87&#10;  Q 326.55 558.81 327.57 558.75&#10;  Q 327.71 558.75 328.02 558.73&#10;  A 1.15 1.15 0.0 0 0 329.05 557.96&#10;  L 330.19 554.71&#10;  Q 330.39 554.15 330.98 554.15&#10;  Q 332.08 554.15 333.61 554.16"/>
<path stroke="#858375" d="&#10;  M 356.49 550.62&#10;  Q 359.25 548.42 357.42 544.98&#10;  Q 356.67 543.57 355.17 543.40&#10;  Q 351.55 542.99 346.17 543.16&#10;  Q 345.61 543.17 345.61 543.73&#10;  L 345.61 557.98&#10;  Q 345.61 558.76 346.39 558.76&#10;  L 346.81 558.76&#10;  A 0.87 0.87 0.0 0 0 347.68 557.89&#10;  L 347.68 553.34&#10;  Q 347.68 552.02 349.00 552.02&#10;  L 353.32 552.02&#10;  Q 355.08 552.02 355.46 553.73&#10;  Q 355.99 556.12 355.73 558.01&#10;  Q 355.63 558.75 356.38 558.75&#10;  L 358.04 558.75&#10;  A 0.34 0.34 0.0 0 0 358.36 558.31&#10;  Q 357.77 556.44 357.81 553.85&#10;  Q 357.82 553.35 357.40 552.55&#10;  Q 356.98 551.74 356.51 551.40&#10;  A 0.49 0.49 0.0 0 1 356.49 550.62"/>
<path stroke="#858375" d="&#10;  M 388.66 559.04&#10;  C 392.27 559.08 394.70 557.43 394.84 553.51&#10;  Q 395.02 548.13 394.97 543.87&#10;  Q 394.96 543.17 394.26 543.17&#10;  L 393.59 543.17&#10;  Q 392.94 543.17 392.94 543.82&#10;  Q 392.95 551.99 392.72 553.48&#10;  Q 392.13 557.34 388.68 557.30&#10;  Q 385.23 557.27 384.71 553.40&#10;  Q 384.51 551.90 384.69 543.74&#10;  Q 384.70 543.09 384.05 543.07&#10;  L 383.38 543.06&#10;  Q 382.68 543.05 382.66 543.75&#10;  Q 382.52 548.00 382.60 553.38&#10;  C 382.65 557.31 385.05 559.01 388.66 559.04"/>
<path stroke="#858375" d="&#10;  M 427.43 550.87&#10;  Q 427.42 556.65 427.43 558.28&#10;  A 0.36 0.36 0.0 0 0 427.79 558.64&#10;  L 438.60 558.64&#10;  A 0.53 0.52 90.0 0 0 439.12 558.11&#10;  L 439.12 557.71&#10;  Q 439.12 556.87 438.29 556.87&#10;  L 429.95 556.87&#10;  Q 429.47 556.87 429.47 556.40&#10;  L 429.47 552.12&#10;  Q 429.47 551.67 429.92 551.67&#10;  L 437.56 551.67&#10;  Q 438.05 551.67 438.16 551.19&#10;  Q 438.19 551.06 438.19 550.88&#10;  Q 438.19 550.69 438.16 550.57&#10;  Q 438.05 550.08 437.56 550.08&#10;  L 429.92 550.08&#10;  Q 429.47 550.07 429.47 549.62&#10;  L 429.48 545.34&#10;  Q 429.48 544.87 429.96 544.88&#10;  L 438.30 544.88&#10;  Q 439.13 544.89 439.13 544.05&#10;  L 439.13 543.65&#10;  A 0.53 0.52 -89.9 0 0 438.61 543.11&#10;  L 427.80 543.10&#10;  A 0.36 0.36 0.0 0 0 427.44 543.46&#10;  Q 427.43 545.10 427.43 550.87"/>
<path stroke="#858375" d="&#10;  M 446.58 556.25&#10;  L 446.58 543.73&#10;  A 0.62 0.61 -90.0 0 0 445.97 543.11&#10;  L 444.94 543.11&#10;  Q 444.52 543.11 444.52 543.53&#10;  L 444.52 558.24&#10;  Q 444.52 558.69 444.97 558.69&#10;  L 454.06 558.69&#10;  A 0.75 0.75 0.0 0 0 454.81 557.94&#10;  L 454.81 557.51&#10;  Q 454.81 556.92 454.22 556.92&#10;  L 447.25 556.92&#10;  Q 446.58 556.92 446.58 556.25"/>
<path stroke="#858375" d="&#10;  M 465.18 554.26&#10;  Q 466.71 554.28 467.81 554.30&#10;  Q 468.40 554.31 468.59 554.87&#10;  L 469.66 558.14&#10;  A 1.15 1.15 0.0 0 0 470.68 558.93&#10;  Q 470.99 558.95 471.13 558.96&#10;  Q 472.14 559.04 471.81 558.09&#10;  Q 470.09 553.04 466.90 544.26&#10;  Q 466.69 543.68 466.31 543.46&#10;  Q 465.86 543.19 465.29 543.19&#10;  Q 464.69 543.18 464.23 543.44&#10;  Q 463.85 543.66 463.63 544.23&#10;  Q 460.28 552.95 458.48 557.97&#10;  Q 458.13 558.92 459.14 558.86&#10;  Q 459.28 558.85 459.59 558.83&#10;  A 1.15 1.15 0.0 0 0 460.63 558.06&#10;  L 461.75 554.81&#10;  Q 461.95 554.25 462.54 554.25&#10;  Q 463.64 554.25 465.18 554.26"/>
<path stroke="#858375" d="&#10;  M 484.36 558.80&#10;  Q 485.46 558.79 486.03 557.01&#10;  Q 488.49 549.43 489.31 546.71&#10;  Q 489.35 546.58 489.42 546.46&#10;  Q 489.66 546.11 489.81 546.25&#10;  Q 489.91 546.35 489.91 546.55&#10;  Q 489.95 552.37 489.98 557.94&#10;  Q 489.99 558.81 490.85 558.81&#10;  L 491.22 558.81&#10;  A 0.61 0.61 0.0 0 0 491.83 558.20&#10;  L 491.83 543.72&#10;  A 0.60 0.60 0.0 0 0 491.23 543.12&#10;  L 489.27 543.12&#10;  Q 488.72 543.12 488.57 543.66&#10;  Q 487.03 549.12 484.64 555.42&#10;  Q 484.54 555.67 484.35 555.67&#10;  Q 484.16 555.67 484.07 555.42&#10;  Q 481.63 549.14 480.05 543.69&#10;  Q 479.90 543.15 479.35 543.15&#10;  L 477.39 543.17&#10;  A 0.60 0.60 0.0 0 0 476.79 543.77&#10;  L 476.89 558.25&#10;  A 0.61 0.61 0.0 0 0 477.51 558.86&#10;  L 477.88 558.85&#10;  Q 478.74 558.85 478.74 557.98&#10;  Q 478.73 552.41 478.73 546.59&#10;  Q 478.73 546.39 478.83 546.29&#10;  Q 478.98 546.15 479.22 546.49&#10;  Q 479.29 546.61 479.34 546.74&#10;  Q 480.17 549.46 482.68 557.02&#10;  Q 483.27 558.80 484.36 558.80"/>
<path stroke="#858375" d="&#10;  M 556.11 550.67&#10;  Q 557.90 549.36 557.65 546.72&#10;  Q 557.36 543.74 554.42 543.36&#10;  Q 551.13 542.92 545.57 543.20&#10;  A 0.38 0.38 0.0 0 0 545.21 543.58&#10;  L 545.21 558.26&#10;  A 0.53 0.52 0.0 0 0 545.74 558.78&#10;  L 546.61 558.78&#10;  Q 547.33 558.78 547.33 558.06&#10;  L 547.33 552.70&#10;  Q 547.33 552.00 548.03 552.00&#10;  L 553.43 552.00&#10;  Q 554.87 552.00 555.05 553.42&#10;  L 555.61 557.92&#10;  Q 555.73 558.82 556.63 558.82&#10;  L 557.01 558.82&#10;  Q 557.51 558.82 557.51 558.33&#10;  L 557.51 552.52&#10;  A 0.88 0.87 -78.1 0 0 556.99 551.72&#10;  L 556.18 551.35&#10;  Q 555.55 551.07 556.11 550.67"/>
<path stroke="#858375" d="&#10;  M 566.63 552.09&#10;  Q 571.18 552.31 573.64 551.51&#10;  Q 574.11 551.35 574.36 550.93&#10;  Q 576.41 547.45 574.46 544.30&#10;  A 2.35 2.34 74.0 0 0 572.47 543.19&#10;  L 564.36 543.19&#10;  Q 563.84 543.19 563.84 543.71&#10;  L 563.84 558.00&#10;  Q 563.84 558.76 564.60 558.76&#10;  L 565.28 558.76&#10;  Q 565.98 558.76 565.98 558.06&#10;  L 565.98 552.71&#10;  Q 565.98 552.06 566.63 552.09"/>
<path stroke="#858375" d="&#10;  M 611.85 550.56&#10;  Q 614.60 548.37 612.76 544.94&#10;  Q 612.01 543.54 610.52 543.37&#10;  Q 606.91 542.97 601.55 543.15&#10;  Q 600.99 543.16 600.99 543.72&#10;  L 601.02 557.92&#10;  Q 601.02 558.70 601.80 558.70&#10;  L 602.22 558.70&#10;  A 0.87 0.87 0.0 0 0 603.08 557.83&#10;  L 603.07 553.29&#10;  Q 603.07 551.98 604.38 551.97&#10;  L 608.69 551.97&#10;  Q 610.45 551.96 610.83 553.67&#10;  Q 611.36 556.05 611.11 557.93&#10;  Q 611.01 558.67 611.75 558.67&#10;  L 613.41 558.67&#10;  A 0.34 0.34 0.0 0 0 613.73 558.23&#10;  Q 613.14 556.36 613.17 553.78&#10;  Q 613.18 553.28 612.76 552.49&#10;  Q 612.34 551.68 611.87 551.34&#10;  A 0.49 0.48 43.6 0 1 611.85 550.56"/>
<path stroke="#858375" d="&#10;  M 625.06 554.12&#10;  Q 626.59 554.14 627.68 554.16&#10;  Q 628.27 554.17 628.46 554.73&#10;  L 629.53 557.99&#10;  A 1.15 1.14 -7.1 0 0 630.54 558.78&#10;  Q 630.85 558.80 630.99 558.81&#10;  Q 632.00 558.89 631.67 557.94&#10;  Q 629.96 552.90 626.78 544.14&#10;  Q 626.57 543.56 626.19 543.34&#10;  Q 625.74 543.08 625.14 543.07&#10;  Q 624.57 543.07 624.11 543.32&#10;  Q 623.73 543.54 623.51 544.11&#10;  Q 620.18 552.81 618.37 557.82&#10;  Q 618.02 558.76 619.03 558.70&#10;  Q 619.17 558.69 619.48 558.68&#10;  A 1.15 1.14 8.1 0 0 620.51 557.91&#10;  L 621.64 554.67&#10;  Q 621.84 554.11 622.43 554.11&#10;  Q 623.52 554.11 625.06 554.12"/>
<path stroke="#858375" d="&#10;  M 641.83 558.73&#10;  Q 642.31 558.73 642.49 558.72&#10;  Q 642.96 558.68 642.96 558.21&#10;  L 642.96 545.48&#10;  A 0.53 0.53 0.0 0 1 643.49 544.95&#10;  L 647.28 544.95&#10;  Q 648.19 544.95 648.19 544.03&#10;  L 648.19 543.76&#10;  A 0.64 0.63 89.9 0 0 647.56 543.12&#10;  Q 644.78 543.11 641.77 543.14&#10;  Q 638.75 543.14 635.98 543.17&#10;  A 0.64 0.63 89.6 0 0 635.35 543.81&#10;  L 635.35 544.08&#10;  Q 635.36 545.00 636.27 545.00&#10;  L 640.06 544.96&#10;  A 0.53 0.53 0.0 0 1 640.59 545.49&#10;  L 640.70 558.22&#10;  Q 640.70 558.69 641.18 558.72&#10;  Q 641.36 558.74 641.83 558.73"/>
<path stroke="#858375" d="&#10;  M 655.2325 543.8018&#10;  A 0.70 0.70 0.0 0 0 654.5337 543.1006&#10;  L 653.8937 543.0995&#10;  A 0.70 0.70 0.0 0 0 653.1925 543.7982&#10;  L 653.1675 558.0782&#10;  A 0.70 0.70 0.0 0 0 653.8663 558.7794&#10;  L 654.5063 558.7805&#10;  A 0.70 0.70 0.0 0 0 655.2075 558.0818&#10;  L 655.2325 543.8018"/>
<path stroke="#858375" d="&#10;  M 688.53 550.41&#10;  Q 686.45 547.26 684.20 543.59&#10;  A 1.00 0.98 73.9 0 0 683.36 543.11&#10;  L 682.21 543.11&#10;  Q 681.54 543.11 681.54 543.78&#10;  L 681.54 558.16&#10;  Q 681.54 558.70 682.09 558.70&#10;  L 682.55 558.70&#10;  Q 683.40 558.70 683.40 557.86&#10;  L 683.40 547.30&#10;  Q 683.40 545.98 684.09 547.10&#10;  Q 685.65 549.59 686.84 551.40&#10;  Q 688.93 554.54 691.17 558.22&#10;  A 1.00 0.98 73.9 0 0 692.02 558.69&#10;  L 693.17 558.69&#10;  Q 693.84 558.69 693.84 558.02&#10;  L 693.84 543.64&#10;  Q 693.84 543.10 693.29 543.10&#10;  L 692.83 543.10&#10;  Q 691.98 543.10 691.98 543.94&#10;  L 691.98 554.50&#10;  Q 691.98 555.82 691.28 554.70&#10;  Q 689.73 552.21 688.53 550.41"/>
<path stroke="#858375" d="&#10;  M 308.91 558.67&#10;  A 0.11 0.11 0.0 0 0 309.02 558.56&#10;  L 309.02 546.15&#10;  A 0.11 0.11 0.0 0 1 309.24 546.12&#10;  L 313.34 558.61&#10;  A 0.11 0.11 0.0 0 0 313.45 558.69&#10;  L 315.36 558.69&#10;  A 0.11 0.11 0.0 0 0 315.47 558.62&#10;  L 319.79 545.99&#10;  A 0.11 0.11 0.0 0 1 319.90 545.92&#10;  L 319.90 545.92&#10;  A 0.11 0.11 0.0 0 1 320.01 546.03&#10;  L 320.01 558.55&#10;  A 0.11 0.11 0.0 0 0 320.12 558.66&#10;  L 321.82 558.66&#10;  A 0.11 0.11 0.0 0 0 321.93 558.55&#10;  L 321.93 543.28&#10;  A 0.11 0.11 0.0 0 0 321.82 543.17&#10;  L 318.98 543.17&#10;  A 0.11 0.11 0.0 0 0 318.87 543.24&#10;  L 314.48 556.05&#10;  A 0.11 0.11 0.0 0 1 314.27 556.05&#10;  L 310.08 543.30&#10;  A 0.11 0.11 0.0 0 0 309.97 543.22&#10;  L 306.95 543.22&#10;  A 0.11 0.11 0.0 0 0 306.84 543.33&#10;  L 306.84 558.56&#10;  A 0.11 0.11 0.0 0 0 306.95 558.67&#10;  L 308.91 558.67"/>
<path stroke="#858375" d="&#10;  M 505.33 226.55&#10;  Q 505.56 226.43 505.99 226.00&#10;  Q 529.73 202.68 530.37 202.09&#10;  Q 534.38 198.35 540.29 196.57&#10;  Q 548.09 194.23 555.86 196.68&#10;  Q 557.59 197.23 557.43 195.62&#10;  A 1.30 1.25 -67.6 0 0 557.19 195.01&#10;  Q 555.74 193.09 552.78 190.18&#10;  Q 530.92 168.63 523.30 160.99&#10;  Q 518.49 156.16 516.80 153.89&#10;  Q 513.39 149.30 512.26 145.46&#10;  Q 510.20 138.48 512.56 129.17&#10;  Q 512.95 127.63 511.84 127.45&#10;  Q 511.39 127.37 511.06 127.70&#10;  Q 496.65 142.07 471.94 166.45&#10;  Q 468.26 170.08 462.90 172.44&#10;  Q 458.69 174.29 453.86 174.23&#10;  Q 448.98 174.18 444.51 173.28&#10;  Q 443.61 173.10 443.38 173.92&#10;  A 1.06 1.05 -60.0 0 0 443.65 174.94&#10;  Q 463.61 194.78 483.34 214.67&#10;  Q 484.82 216.17 487.61 220.77&#10;  Q 488.12 221.62 488.34 222.86&#10;  C 488.64 224.55 489.63 226.51 489.90 228.09&#10;  Q 490.76 233.25 489.51 238.37&#10;  Q 488.21 243.67 492.10 239.84&#10;  L 505.01 227.15&#10;  Q 505.13 227.03 505.13 226.97&#10;  Q 505.12 226.88 505.12 226.85&#10;  Q 505.12 226.67 505.33 226.55"/>
<path stroke="#858375" d="&#10;  M 532.0127 557.3496&#10;  A 6.43 5.48 90.6 0 0 537.5597 550.9774&#10;  A 6.43 5.48 90.6 0 0 532.1473 544.4904&#10;  A 6.43 5.48 90.6 0 0 526.6003 550.8626&#10;  A 6.43 5.48 90.6 0 0 532.0127 557.3496"/>
<path stroke="#858375" d="&#10;  M 587.6862 557.3788&#10;  A 6.45 5.41 91.1 0 0 593.2190 551.0339&#10;  A 6.45 5.41 91.1 0 0 587.9338 544.4812&#10;  A 6.45 5.41 91.1 0 0 582.4010 550.8261&#10;  A 6.45 5.41 91.1 0 0 587.6862 557.3788"/>
<path stroke="#858375" d="&#10;  M 668.3316 557.3075&#10;  A 6.39 5.45 91.6 0 0 673.9579 551.0722&#10;  A 6.39 5.45 91.6 0 0 668.6884 544.5325&#10;  A 6.39 5.45 91.6 0 0 663.0621 550.7678&#10;  A 6.39 5.45 91.6 0 0 668.3316 557.3075"/>
<path stroke="#858375" d="&#10;  M 331.22 551.78&#10;  A 0.32 0.32 0.0 0 0 331.50 552.22&#10;  L 335.51 552.40&#10;  A 0.32 0.32 0.0 0 0 335.83 551.98&#10;  L 334.08 546.12&#10;  A 0.32 0.32 0.0 0 0 333.48 546.09&#10;  L 331.22 551.78"/>
<path stroke="#858375" d="&#10;  M 347.70 545.22&#10;  L 347.72 549.92&#10;  A 0.38 0.38 0.0 0 0 348.10 550.30&#10;  L 353.17 550.28&#10;  A 2.53 1.95 -0.2 0 0 355.69 548.33&#10;  L 355.69 546.77&#10;  A 2.53 1.95 -0.2 0 0 353.15 544.82&#10;  L 348.08 544.84&#10;  A 0.38 0.38 0.0 0 0 347.70 545.22"/>
<path stroke="#858375" d="&#10;  M 462.83 551.85&#10;  A 0.37 0.37 0.0 0 0 463.17 552.34&#10;  L 467.10 552.41&#10;  A 0.37 0.37 0.0 0 0 467.46 551.93&#10;  L 465.60 545.96&#10;  A 0.37 0.37 0.0 0 0 464.90 545.95&#10;  L 462.83 551.85"/>
<path stroke="#858375" d="&#10;  M 547.33 545.31&#10;  L 547.35 549.79&#10;  A 0.54 0.54 0.0 0 0 547.89 550.33&#10;  L 552.43 550.32&#10;  A 3.08 2.65 -0.2 0 0 555.50 547.66&#10;  L 555.50 547.40&#10;  A 3.08 2.65 -0.2 0 0 552.41 544.76&#10;  L 547.87 544.77&#10;  A 0.54 0.54 0.0 0 0 547.33 545.31"/>
<path stroke="#858375" d="&#10;  M 565.98 545.22&#10;  L 565.98 549.90&#10;  A 0.44 0.44 0.0 0 0 566.42 550.34&#10;  L 570.45 550.34&#10;  A 2.89 2.49 -0.0 0 0 573.34 547.85&#10;  L 573.34 547.27&#10;  A 2.89 2.49 0.0 0 0 570.45 544.78&#10;  L 566.42 544.78&#10;  A 0.44 0.44 0.0 0 0 565.98 545.22"/>
<path stroke="#858375" d="&#10;  M 603.08 545.37&#10;  L 603.08 549.73&#10;  A 0.57 0.57 0.0 0 0 603.65 550.30&#10;  L 608.47 550.30&#10;  A 2.71 2.26 -0.0 0 0 611.18 548.04&#10;  L 611.18 547.06&#10;  A 2.71 2.26 0.0 0 0 608.47 544.80&#10;  L 603.65 544.80&#10;  A 0.57 0.57 0.0 0 0 603.08 545.37"/>
<path stroke="#858375" d="&#10;  M 624.90 552.33&#10;  Q 625.87 552.33 626.53 552.29&#10;  A 0.53 0.53 0.0 0 0 627.01 551.63&#10;  Q 625.52 546.11 624.93 546.11&#10;  Q 624.33 546.11 622.80 551.61&#10;  A 0.53 0.53 0.0 0 0 623.27 552.28&#10;  Q 623.93 552.33 624.90 552.33"/>
</g>
<path fill="#f9f4d8" d="&#10;  M 1000.00 0.00&#10;  L 1000.00 653.00&#10;  L 0.00 653.00&#10;  L 0.00 0.00&#10;  L 1000.00 0.00&#10;  Z&#10;  M 438.50 163.37&#10;  Q 437.64 164.26 436.18 164.20&#10;  Q 434.93 164.15 434.15 163.27&#10;  Q 432.49 161.37 432.15 159.72&#10;  C 430.92 153.69 429.01 148.54 430.47 142.43&#10;  Q 431.40 138.52 432.84 134.14&#10;  Q 433.21 133.02 433.76 132.28&#10;  Q 434.71 131.01 434.90 130.48&#10;  Q 435.37 129.16 436.51 127.80&#10;  Q 440.44 123.09 445.03 119.77&#10;  Q 445.85 119.18 446.91 118.86&#10;  C 448.72 118.31 449.75 117.21 451.68 116.73&#10;  Q 458.46 115.03 464.00 114.57&#10;  Q 464.35 114.54 465.36 114.09&#10;  Q 466.10 113.77 466.49 113.28&#10;  Q 467.23 112.33 468.29 111.69&#10;  Q 468.96 111.29 469.90 110.00&#10;  Q 470.73 108.86 472.22 107.97&#10;  Q 472.90 107.56 473.64 106.12&#10;  A 1.75 1.65 -3.0 0 1 474.28 105.45&#10;  Q 476.44 104.19 477.63 102.14&#10;  Q 477.89 101.70 478.33 101.45&#10;  Q 479.89 100.60 480.95 98.86&#10;  Q 481.21 98.42 481.67 98.22&#10;  Q 484.97 96.73 484.29 92.93&#10;  A 0.77 0.76 -88.9 0 0 483.71 92.32&#10;  C 480.29 91.56 476.75 89.86 473.20 89.32&#10;  Q 462.53 87.67 452.58 89.34&#10;  C 449.42 89.87 446.32 91.35 443.68 91.93&#10;  Q 440.82 92.57 439.44 93.44&#10;  Q 438.15 94.24 435.45 95.68&#10;  Q 435.13 95.84 434.96 95.85&#10;  Q 434.83 95.86 434.43 95.89&#10;  Q 434.00 95.93 433.67 96.15&#10;  Q 432.67 96.83 430.72 97.80&#10;  Q 429.39 98.47 427.96 99.70&#10;  Q 423.90 103.21 421.83 105.15&#10;  Q 420.78 106.13 419.27 107.93&#10;  Q 418.65 108.67 416.75 110.73&#10;  Q 413.16 114.61 410.06 121.02&#10;  Q 409.74 121.67 408.61 123.59&#10;  Q 407.89 124.81 407.47 126.34&#10;  Q 406.65 129.33 406.64 129.37&#10;  Q 404.95 134.62 404.70 136.12&#10;  Q 403.96 140.48 403.88 149.17&#10;  Q 403.86 151.16 404.23 153.33&#10;  Q 404.59 155.38 404.67 157.53&#10;  Q 404.78 160.68 405.87 163.64&#10;  Q 406.98 166.64 407.36 168.35&#10;  Q 407.78 170.20 409.18 172.96&#10;  Q 411.19 176.89 413.41 180.28&#10;  Q 415.13 182.92 418.89 186.60&#10;  Q 424.82 192.39 430.55 198.41&#10;  Q 430.62 198.49 430.59 198.56&#10;  Q 430.56 198.64 430.49 198.62&#10;  A 0.20 0.08 54.5 0 0 430.56 198.89&#10;  Q 454.13 222.28 477.38 245.96&#10;  C 479.42 248.04 480.64 250.03 477.43 251.90&#10;  Q 475.28 253.15 473.06 253.76&#10;  Q 472.30 253.97 468.46 254.67&#10;  Q 464.63 255.37 459.74 255.14&#10;  Q 458.61 255.09 457.28 254.80&#10;  Q 455.47 254.39 454.83 254.32&#10;  Q 452.99 254.12 451.27 253.42&#10;  Q 438.01 247.98 432.26 234.55&#10;  Q 432.24 234.49 432.19 234.02&#10;  Q 432.15 233.52 432.08 233.36&#10;  Q 430.02 228.20 429.92 223.04&#10;  Q 429.85 219.94 428.08 218.12&#10;  Q 422.64 212.56 413.04 203.05&#10;  Q 411.30 201.33 410.13 201.10&#10;  Q 407.90 200.66 406.98 203.24&#10;  Q 406.69 204.06 405.67 207.59&#10;  Q 404.93 210.14 404.65 212.05&#10;  Q 402.96 223.65 404.91 233.80&#10;  Q 408.62 253.13 423.35 266.40&#10;  Q 426.12 268.90 428.48 270.40&#10;  Q 430.21 271.48 433.71 273.84&#10;  Q 434.03 274.05 434.36 274.05&#10;  Q 434.83 274.04 435.01 274.48&#10;  Q 435.29 275.21 436.09 275.38&#10;  C 437.74 275.72 439.18 277.06 440.96 277.43&#10;  Q 442.41 277.73 446.89 279.37&#10;  Q 451.34 280.99 457.62 281.55&#10;  Q 463.34 282.07 470.99 281.13&#10;  Q 477.15 280.37 483.29 277.80&#10;  Q 483.47 277.72 483.74 277.76&#10;  Q 484.09 277.79 484.41 277.65&#10;  Q 491.23 274.63 495.15 272.28&#10;  Q 498.91 270.04 504.35 264.60&#10;  Q 522.98 245.98 561.75 207.66&#10;  Q 562.99 206.43 564.08 206.22&#10;  Q 565.78 205.90 567.01 207.14&#10;  Q 567.57 207.71 568.00 209.18&#10;  C 568.53 211.04 569.54 213.01 569.88 214.57&#10;  Q 573.50 231.20 562.83 243.91&#10;  Q 561.83 245.10 560.17 246.60&#10;  Q 557.38 249.12 557.35 249.15&#10;  Q 556.30 250.24 554.93 250.80&#10;  C 552.45 251.82 550.37 253.41 548.15 253.95&#10;  Q 543.72 255.03 539.08 255.42&#10;  Q 534.86 255.77 533.27 257.39&#10;  Q 529.59 261.13 517.21 273.51&#10;  C 516.11 274.61 515.89 276.02 516.62 277.25&#10;  Q 517.04 277.95 518.92 278.56&#10;  Q 533.61 283.32 548.86 280.71&#10;  Q 550.61 280.41 553.12 279.56&#10;  Q 556.48 278.42 557.36 278.21&#10;  Q 559.21 277.78 560.63 277.08&#10;  Q 562.00 276.40 563.76 275.52&#10;  C 564.48 275.16 565.34 275.27 566.02 274.68&#10;  Q 566.91 273.91 566.99 273.86&#10;  Q 570.04 271.96 573.10 270.10&#10;  Q 574.39 269.32 580.37 263.52&#10;  Q 584.39 259.62 586.71 256.08&#10;  Q 592.77 246.81 594.86 238.67&#10;  Q 601.41 213.21 588.46 191.60&#10;  Q 585.66 186.93 580.52 181.74&#10;  Q 527.21 127.89 524.30 124.97&#10;  Q 521.18 121.84 521.55 120.16&#10;  Q 521.80 119.01 523.34 118.25&#10;  Q 526.54 116.68 527.44 116.45&#10;  Q 536.49 114.20 544.57 115.27&#10;  Q 548.04 115.72 554.92 119.18&#10;  Q 557.24 120.34 559.59 122.85&#10;  Q 561.41 124.79 563.65 126.97&#10;  Q 564.60 127.89 565.38 129.45&#10;  Q 566.54 131.73 566.98 132.20&#10;  Q 567.41 132.65 567.52 133.36&#10;  Q 567.62 133.95 567.98 134.48&#10;  Q 568.51 135.25 568.75 136.13&#10;  C 569.31 138.08 570.41 140.32 570.66 142.78&#10;  Q 570.87 144.85 571.35 149.55&#10;  A 3.83 3.82 19.6 0 0 572.45 151.86&#10;  L 588.77 168.18&#10;  A 3.22 3.22 0.0 0 0 594.19 166.58&#10;  Q 595.17 162.04 595.44 160.97&#10;  C 597.18 154.30 597.38 147.18 596.62 140.23&#10;  Q 595.75 132.28 592.96 125.71&#10;  Q 583.60 103.67 561.47 93.26&#10;  C 558.81 92.01 555.64 91.47 552.79 90.50&#10;  Q 550.11 89.58 546.08 89.02&#10;  Q 535.38 87.51 525.63 89.81&#10;  C 522.76 90.48 519.35 92.00 516.15 92.74&#10;  Q 514.50 93.12 512.98 94.12&#10;  Q 511.88 94.84 509.70 95.33&#10;  Q 509.21 95.44 508.83 95.78&#10;  Q 506.68 97.73 503.25 99.19&#10;  A 2.15 2.10 7.7 0 0 502.47 99.77&#10;  Q 501.49 100.94 500.30 101.52&#10;  Q 499.83 101.75 499.55 102.18&#10;  Q 498.13 104.38 496.61 105.71&#10;  Q 493.57 108.38 493.52 108.43&#10;  Q 490.46 111.49 489.83 112.06&#10;  Q 488.85 112.95 488.47 113.71&#10;  Q 487.99 114.67 486.95 115.24&#10;  Q 485.92 115.79 484.54 117.26&#10;  Q 479.44 122.66 477.51 124.26&#10;  Q 475.69 125.77 474.41 127.17&#10;  Q 472.13 129.68 471.51 130.26&#10;  Q 468.47 133.08 465.38 136.19&#10;  Q 452.37 149.28 439.15 162.15&#10;  Q 439.04 162.27 438.96 162.56&#10;  Q 438.83 163.02 438.50 163.37&#10;  Z&#10;  M 626.56 358.01&#10;  Q 625.07 358.39 621.02 361.30&#10;  Q 612.94 367.12 612.38 368.02&#10;  Q 612.32 368.12 612.16 368.11&#10;  Q 612.12 368.11 612.04 368.13&#10;  Q 611.96 368.14 611.83 368.26&#10;  Q 607.72 371.97 605.18 375.14&#10;  Q 601.24 380.05 596.70 387.37&#10;  Q 595.26 389.68 594.93 390.64&#10;  Q 594.19 392.77 593.33 394.00&#10;  Q 592.16 395.69 591.25 399.13&#10;  Q 590.93 400.34 589.33 404.83&#10;  Q 588.69 406.60 588.40 408.52&#10;  Q 588.10 410.48 587.69 412.29&#10;  Q 583.96 428.81 588.04 446.70&#10;  Q 589.95 455.08 591.39 457.93&#10;  Q 591.65 458.46 591.67 459.14&#10;  Q 591.69 459.94 591.95 460.37&#10;  Q 593.59 463.07 594.42 465.15&#10;  Q 595.20 467.12 596.87 469.74&#10;  Q 603.84 480.74 606.78 483.58&#10;  Q 611.56 488.20 615.61 492.08&#10;  Q 616.30 492.74 618.99 494.35&#10;  Q 621.37 495.76 623.26 497.26&#10;  Q 623.86 497.73 625.77 498.68&#10;  Q 627.32 499.44 628.19 500.30&#10;  Q 629.21 501.31 631.00 501.73&#10;  Q 632.33 502.03 633.88 502.85&#10;  Q 635.37 503.63 636.70 504.33&#10;  Q 638.16 505.11 639.89 505.48&#10;  Q 641.99 505.94 643.10 506.36&#10;  Q 650.14 509.06 652.13 509.28&#10;  Q 655.46 509.67 661.40 510.35&#10;  Q 675.61 511.99 690.47 509.12&#10;  Q 696.52 507.96 701.46 505.90&#10;  Q 701.47 505.89 702.40 505.73&#10;  Q 702.61 505.69 703.01 505.53&#10;  Q 713.87 501.09 721.82 494.80&#10;  Q 733.93 485.22 741.82 471.98&#10;  Q 742.17 471.39 741.60 470.99&#10;  L 714.70 452.24&#10;  Q 714.25 451.93 713.93 452.37&#10;  Q 713.12 453.50 712.39 454.65&#10;  Q 709.12 459.80 706.39 462.37&#10;  Q 703.15 465.41 702.93 465.66&#10;  Q 701.68 467.05 700.16 467.85&#10;  Q 699.13 468.40 697.26 469.95&#10;  C 696.28 470.77 694.60 471.09 693.34 471.95&#10;  Q 690.54 473.85 687.38 474.86&#10;  Q 669.08 480.68 652.05 473.95&#10;  Q 642.48 470.16 635.70 462.84&#10;  Q 627.29 453.77 624.14 441.64&#10;  Q 623.64 439.69 623.38 437.08&#10;  Q 623.02 433.37 622.88 432.48&#10;  Q 621.93 426.35 623.82 418.78&#10;  Q 623.96 418.19 623.72 417.69&#10;  A 1.21 1.21 0.0 0 1 623.65 416.78&#10;  Q 625.99 408.95 629.41 402.43&#10;  Q 630.21 400.90 631.70 399.04&#10;  C 633.97 396.21 636.08 393.39 638.45 391.33&#10;  Q 649.28 381.89 662.99 379.92&#10;  Q 676.16 378.03 689.89 383.78&#10;  Q 694.63 385.76 698.06 388.46&#10;  Q 702.36 391.83 705.22 394.88&#10;  Q 705.39 395.07 709.79 400.24&#10;  Q 709.88 400.34 709.97 400.68&#10;  C 710.18 401.37 710.25 401.78 710.74 402.25&#10;  Q 712.01 403.44 712.84 405.02&#10;  Q 713.05 405.42 713.43 405.17&#10;  L 741.06 385.99&#10;  A 0.86 0.86 0.0 0 0 741.30 384.84&#10;  Q 733.32 371.98 722.74 363.02&#10;  Q 717.10 358.25 708.90 354.35&#10;  Q 696.32 348.37 682.97 346.88&#10;  Q 667.57 345.15 652.57 347.86&#10;  Q 648.97 348.51 644.87 350.00&#10;  Q 642.67 350.79 640.44 351.36&#10;  Q 637.32 352.15 636.04 353.01&#10;  Q 634.18 354.27 632.25 354.82&#10;  Q 628.96 355.76 627.35 357.53&#10;  Q 627.03 357.89 626.56 358.01&#10;  Z&#10;  M 314.87 460.76&#10;  L 314.87 461.22&#10;  Q 314.87 461.46 314.97 461.67&#10;  L 335.77 507.51&#10;  Q 335.99 508.00 336.53 508.00&#10;  L 358.83 508.00&#10;  A 1.02 1.00 -77.7 0 0 359.75 507.40&#10;  L 402.51 412.86&#10;  Q 402.55 412.76 402.55 412.87&#10;  L 402.55 507.50&#10;  Q 402.55 507.99 403.05 507.99&#10;  L 437.51 507.99&#10;  Q 438.00 507.99 438.00 507.49&#10;  L 438.00 349.77&#10;  A 0.36 0.35 -90.0 0 0 437.65 349.41&#10;  L 395.02 349.41&#10;  Q 394.55 349.41 394.47 349.88&#10;  Q 394.37 350.47 394.13 350.99&#10;  Q 391.43 356.89 359.95 427.76&#10;  Q 357.49 433.30 357.47 433.34&#10;  Q 356.14 435.86 355.03 438.89&#10;  Q 354.21 441.14 352.33 444.43&#10;  Q 352.18 444.70 352.09 445.15&#10;  Q 351.93 445.90 351.91 445.96&#10;  Q 350.11 449.74 348.50 453.98&#10;  Q 348.30 454.50 348.07 453.99&#10;  L 301.83 349.85&#10;  Q 301.64 349.41 301.17 349.41&#10;  L 259.20 349.41&#10;  Q 258.56 349.41 258.56 350.05&#10;  L 258.56 507.40&#10;  Q 258.56 507.99 259.15 507.99&#10;  L 292.93 507.99&#10;  Q 293.14 507.99 293.14 507.78&#10;  L 293.39 415.79&#10;  Q 293.40 413.89 294.18 415.63&#10;  L 313.53 458.22&#10;  Q 313.89 459.00 313.93 459.19&#10;  Q 314.12 460.12 314.79 460.61&#10;  Q 314.87 460.66 314.87 460.76&#10;  Z&#10;  M 573.62 475.85&#10;  A 0.31 0.31 0.0 0 0 573.31 475.54&#10;  L 493.52 475.54&#10;  A 0.31 0.31 0.0 0 1 493.21 475.23&#10;  L 493.21 443.43&#10;  A 0.31 0.31 0.0 0 1 493.52 443.12&#10;  L 567.10 443.12&#10;  A 0.31 0.31 0.0 0 0 567.41 442.81&#10;  L 567.41 411.98&#10;  A 0.31 0.31 0.0 0 0 567.10 411.67&#10;  L 493.52 411.67&#10;  A 0.31 0.31 0.0 0 1 493.21 411.36&#10;  L 493.21 381.98&#10;  A 0.31 0.31 0.0 0 1 493.52 381.67&#10;  L 573.10 381.67&#10;  A 0.31 0.31 0.0 0 0 573.41 381.36&#10;  L 573.41 349.73&#10;  A 0.31 0.31 0.0 0 0 573.10 349.42&#10;  L 457.54 349.42&#10;  A 0.31 0.31 0.0 0 0 457.23 349.73&#10;  L 457.23 507.68&#10;  A 0.31 0.31 0.0 0 0 457.54 507.99&#10;  L 573.31 507.99&#10;  A 0.31 0.31 0.0 0 0 573.62 507.68&#10;  L 573.62 475.85&#10;  Z&#10;  M 371.48 557.25&#10;  Q 368.39 557.77 366.46 555.15&#10;  C 365.33 553.62 365.32 549.68 365.89 548.18&#10;  Q 367.35 544.31 371.21 544.58&#10;  C 373.24 544.72 373.93 545.63 375.03 547.41&#10;  Q 375.56 548.27 376.38 547.92&#10;  Q 376.85 547.72 376.77 547.21&#10;  Q 376.28 544.15 373.32 543.30&#10;  Q 366.14 541.22 363.71 547.81&#10;  Q 362.28 551.72 364.36 555.80&#10;  C 366.02 559.03 369.65 559.66 372.76 558.75&#10;  Q 376.09 557.77 377.04 553.87&#10;  Q 377.16 553.38 376.68 553.21&#10;  Q 376.17 553.01 375.62 553.08&#10;  Q 375.06 553.15 374.86 553.68&#10;  Q 373.64 556.89 371.48 557.25&#10;  Z&#10;  M 403.13 547.28&#10;  C 403.35 545.94 403.52 544.96 405.16 544.56&#10;  Q 409.03 543.63 410.83 547.51&#10;  Q 411.01 547.90 411.72 547.84&#10;  Q 412.25 547.79 412.29 547.25&#10;  Q 412.49 544.01 408.90 543.10&#10;  C 405.54 542.25 401.37 543.02 401.00 547.06&#10;  C 400.64 551.05 405.27 551.50 409.05 552.46&#10;  Q 410.51 552.83 410.90 554.13&#10;  A 2.01 2.01 0.0 0 1 410.09 556.37&#10;  Q 407.85 557.89 404.48 557.06&#10;  Q 403.98 556.94 403.70 556.51&#10;  Q 403.35 555.96 402.55 554.49&#10;  Q 402.25 553.95 401.88 553.83&#10;  Q 401.45 553.69 401.06 553.76&#10;  Q 400.47 553.85 400.53 554.44&#10;  Q 400.95 558.90 406.36 559.14&#10;  Q 409.09 559.27 410.74 558.32&#10;  Q 412.68 557.20 412.84 554.85&#10;  Q 413.00 552.45 411.31 551.18&#10;  Q 410.46 550.54 407.88 549.96&#10;  Q 405.78 549.48 404.08 548.89&#10;  A 1.46 1.45 -75.8 0 1 403.13 547.28&#10;  Z&#10;  M 514.28 557.24&#10;  Q 511.19 557.78 509.24 555.17&#10;  C 508.10 553.65 508.06 549.71 508.62 548.21&#10;  Q 510.05 544.33 513.91 544.57&#10;  C 515.94 544.70 516.64 545.60 517.75 547.37&#10;  Q 518.29 548.23 519.11 547.87&#10;  Q 519.57 547.67 519.49 547.16&#10;  Q 518.98 544.10 516.01 543.27&#10;  Q 508.82 541.25 506.44 547.86&#10;  Q 505.04 551.78 507.15 555.84&#10;  C 508.83 559.06 512.47 559.66 515.57 558.72&#10;  Q 518.89 557.72 519.81 553.81&#10;  Q 519.93 553.32 519.45 553.16&#10;  Q 518.94 552.96 518.39 553.03&#10;  Q 517.83 553.11 517.63 553.64&#10;  Q 516.44 556.86 514.28 557.24&#10;  Z&#10;  M 531.9357 559.2975&#10;  A 8.36 7.76 91.4 0 0 539.8977 551.1296&#10;  A 8.36 7.76 91.4 0 0 532.3443 542.5825&#10;  A 8.36 7.76 91.4 0 0 524.3823 550.7504&#10;  A 8.36 7.76 91.4 0 0 531.9357 559.2975&#10;  Z&#10;  M 587.8455 559.2700&#10;  A 8.33 7.77 90.1 0 0 595.6300 550.9536&#10;  A 8.33 7.77 90.1 0 0 587.8745 542.6100&#10;  A 8.33 7.77 90.1 0 0 580.0900 550.9264&#10;  A 8.33 7.77 90.1 0 0 587.8455 559.2700&#10;  Z&#10;  M 668.6218 559.2794&#10;  A 8.33 7.76 89.3 0 0 676.2794 550.8552&#10;  A 8.33 7.76 89.3 0 0 668.4182 542.6206&#10;  A 8.33 7.76 89.3 0 0 660.7606 551.0448&#10;  A 8.33 7.76 89.3 0 0 668.6218 559.2794&#10;  Z&#10;  M 333.61 554.16&#10;  Q 335.15 554.18 336.25 554.20&#10;  Q 336.84 554.21 337.03 554.77&#10;  L 338.10 558.05&#10;  A 1.15 1.15 0.0 0 0 339.12 558.84&#10;  Q 339.43 558.86 339.57 558.87&#10;  Q 340.58 558.95 340.25 558.00&#10;  Q 338.53 552.94 335.35 544.15&#10;  Q 335.14 543.57 334.76 543.34&#10;  Q 334.31 543.08 333.74 543.07&#10;  Q 333.14 543.07 332.68 543.32&#10;  Q 332.29 543.54 332.07 544.12&#10;  Q 328.72 552.85 326.90 557.87&#10;  Q 326.55 558.81 327.57 558.75&#10;  Q 327.71 558.75 328.02 558.73&#10;  A 1.15 1.15 0.0 0 0 329.05 557.96&#10;  L 330.19 554.71&#10;  Q 330.39 554.15 330.98 554.15&#10;  Q 332.08 554.15 333.61 554.16&#10;  Z&#10;  M 356.49 550.62&#10;  Q 359.25 548.42 357.42 544.98&#10;  Q 356.67 543.57 355.17 543.40&#10;  Q 351.55 542.99 346.17 543.16&#10;  Q 345.61 543.17 345.61 543.73&#10;  L 345.61 557.98&#10;  Q 345.61 558.76 346.39 558.76&#10;  L 346.81 558.76&#10;  A 0.87 0.87 0.0 0 0 347.68 557.89&#10;  L 347.68 553.34&#10;  Q 347.68 552.02 349.00 552.02&#10;  L 353.32 552.02&#10;  Q 355.08 552.02 355.46 553.73&#10;  Q 355.99 556.12 355.73 558.01&#10;  Q 355.63 558.75 356.38 558.75&#10;  L 358.04 558.75&#10;  A 0.34 0.34 0.0 0 0 358.36 558.31&#10;  Q 357.77 556.44 357.81 553.85&#10;  Q 357.82 553.35 357.40 552.55&#10;  Q 356.98 551.74 356.51 551.40&#10;  A 0.49 0.49 0.0 0 1 356.49 550.62&#10;  Z&#10;  M 388.66 559.04&#10;  C 392.27 559.08 394.70 557.43 394.84 553.51&#10;  Q 395.02 548.13 394.97 543.87&#10;  Q 394.96 543.17 394.26 543.17&#10;  L 393.59 543.17&#10;  Q 392.94 543.17 392.94 543.82&#10;  Q 392.95 551.99 392.72 553.48&#10;  Q 392.13 557.34 388.68 557.30&#10;  Q 385.23 557.27 384.71 553.40&#10;  Q 384.51 551.90 384.69 543.74&#10;  Q 384.70 543.09 384.05 543.07&#10;  L 383.38 543.06&#10;  Q 382.68 543.05 382.66 543.75&#10;  Q 382.52 548.00 382.60 553.38&#10;  C 382.65 557.31 385.05 559.01 388.66 559.04&#10;  Z&#10;  M 427.43 550.87&#10;  Q 427.42 556.65 427.43 558.28&#10;  A 0.36 0.36 0.0 0 0 427.79 558.64&#10;  L 438.60 558.64&#10;  A 0.53 0.52 90.0 0 0 439.12 558.11&#10;  L 439.12 557.71&#10;  Q 439.12 556.87 438.29 556.87&#10;  L 429.95 556.87&#10;  Q 429.47 556.87 429.47 556.40&#10;  L 429.47 552.12&#10;  Q 429.47 551.67 429.92 551.67&#10;  L 437.56 551.67&#10;  Q 438.05 551.67 438.16 551.19&#10;  Q 438.19 551.06 438.19 550.88&#10;  Q 438.19 550.69 438.16 550.57&#10;  Q 438.05 550.08 437.56 550.08&#10;  L 429.92 550.08&#10;  Q 429.47 550.07 429.47 549.62&#10;  L 429.48 545.34&#10;  Q 429.48 544.87 429.96 544.88&#10;  L 438.30 544.88&#10;  Q 439.13 544.89 439.13 544.05&#10;  L 439.13 543.65&#10;  A 0.53 0.52 -89.9 0 0 438.61 543.11&#10;  L 427.80 543.10&#10;  A 0.36 0.36 0.0 0 0 427.44 543.46&#10;  Q 427.43 545.10 427.43 550.87&#10;  Z&#10;  M 446.58 556.25&#10;  L 446.58 543.73&#10;  A 0.62 0.61 -90.0 0 0 445.97 543.11&#10;  L 444.94 543.11&#10;  Q 444.52 543.11 444.52 543.53&#10;  L 444.52 558.24&#10;  Q 444.52 558.69 444.97 558.69&#10;  L 454.06 558.69&#10;  A 0.75 0.75 0.0 0 0 454.81 557.94&#10;  L 454.81 557.51&#10;  Q 454.81 556.92 454.22 556.92&#10;  L 447.25 556.92&#10;  Q 446.58 556.92 446.58 556.25&#10;  Z&#10;  M 465.18 554.26&#10;  Q 466.71 554.28 467.81 554.30&#10;  Q 468.40 554.31 468.59 554.87&#10;  L 469.66 558.14&#10;  A 1.15 1.15 0.0 0 0 470.68 558.93&#10;  Q 470.99 558.95 471.13 558.96&#10;  Q 472.14 559.04 471.81 558.09&#10;  Q 470.09 553.04 466.90 544.26&#10;  Q 466.69 543.68 466.31 543.46&#10;  Q 465.86 543.19 465.29 543.19&#10;  Q 464.69 543.18 464.23 543.44&#10;  Q 463.85 543.66 463.63 544.23&#10;  Q 460.28 552.95 458.48 557.97&#10;  Q 458.13 558.92 459.14 558.86&#10;  Q 459.28 558.85 459.59 558.83&#10;  A 1.15 1.15 0.0 0 0 460.63 558.06&#10;  L 461.75 554.81&#10;  Q 461.95 554.25 462.54 554.25&#10;  Q 463.64 554.25 465.18 554.26&#10;  Z&#10;  M 484.36 558.80&#10;  Q 485.46 558.79 486.03 557.01&#10;  Q 488.49 549.43 489.31 546.71&#10;  Q 489.35 546.58 489.42 546.46&#10;  Q 489.66 546.11 489.81 546.25&#10;  Q 489.91 546.35 489.91 546.55&#10;  Q 489.95 552.37 489.98 557.94&#10;  Q 489.99 558.81 490.85 558.81&#10;  L 491.22 558.81&#10;  A 0.61 0.61 0.0 0 0 491.83 558.20&#10;  L 491.83 543.72&#10;  A 0.60 0.60 0.0 0 0 491.23 543.12&#10;  L 489.27 543.12&#10;  Q 488.72 543.12 488.57 543.66&#10;  Q 487.03 549.12 484.64 555.42&#10;  Q 484.54 555.67 484.35 555.67&#10;  Q 484.16 555.67 484.07 555.42&#10;  Q 481.63 549.14 480.05 543.69&#10;  Q 479.90 543.15 479.35 543.15&#10;  L 477.39 543.17&#10;  A 0.60 0.60 0.0 0 0 476.79 543.77&#10;  L 476.89 558.25&#10;  A 0.61 0.61 0.0 0 0 477.51 558.86&#10;  L 477.88 558.85&#10;  Q 478.74 558.85 478.74 557.98&#10;  Q 478.73 552.41 478.73 546.59&#10;  Q 478.73 546.39 478.83 546.29&#10;  Q 478.98 546.15 479.22 546.49&#10;  Q 479.29 546.61 479.34 546.74&#10;  Q 480.17 549.46 482.68 557.02&#10;  Q 483.27 558.80 484.36 558.80&#10;  Z&#10;  M 556.11 550.67&#10;  Q 557.90 549.36 557.65 546.72&#10;  Q 557.36 543.74 554.42 543.36&#10;  Q 551.13 542.92 545.57 543.20&#10;  A 0.38 0.38 0.0 0 0 545.21 543.58&#10;  L 545.21 558.26&#10;  A 0.53 0.52 0.0 0 0 545.74 558.78&#10;  L 546.61 558.78&#10;  Q 547.33 558.78 547.33 558.06&#10;  L 547.33 552.70&#10;  Q 547.33 552.00 548.03 552.00&#10;  L 553.43 552.00&#10;  Q 554.87 552.00 555.05 553.42&#10;  L 555.61 557.92&#10;  Q 555.73 558.82 556.63 558.82&#10;  L 557.01 558.82&#10;  Q 557.51 558.82 557.51 558.33&#10;  L 557.51 552.52&#10;  A 0.88 0.87 -78.1 0 0 556.99 551.72&#10;  L 556.18 551.35&#10;  Q 555.55 551.07 556.11 550.67&#10;  Z&#10;  M 566.63 552.09&#10;  Q 571.18 552.31 573.64 551.51&#10;  Q 574.11 551.35 574.36 550.93&#10;  Q 576.41 547.45 574.46 544.30&#10;  A 2.35 2.34 74.0 0 0 572.47 543.19&#10;  L 564.36 543.19&#10;  Q 563.84 543.19 563.84 543.71&#10;  L 563.84 558.00&#10;  Q 563.84 558.76 564.60 558.76&#10;  L 565.28 558.76&#10;  Q 565.98 558.76 565.98 558.06&#10;  L 565.98 552.71&#10;  Q 565.98 552.06 566.63 552.09&#10;  Z&#10;  M 611.85 550.56&#10;  Q 614.60 548.37 612.76 544.94&#10;  Q 612.01 543.54 610.52 543.37&#10;  Q 606.91 542.97 601.55 543.15&#10;  Q 600.99 543.16 600.99 543.72&#10;  L 601.02 557.92&#10;  Q 601.02 558.70 601.80 558.70&#10;  L 602.22 558.70&#10;  A 0.87 0.87 0.0 0 0 603.08 557.83&#10;  L 603.07 553.29&#10;  Q 603.07 551.98 604.38 551.97&#10;  L 608.69 551.97&#10;  Q 610.45 551.96 610.83 553.67&#10;  Q 611.36 556.05 611.11 557.93&#10;  Q 611.01 558.67 611.75 558.67&#10;  L 613.41 558.67&#10;  A 0.34 0.34 0.0 0 0 613.73 558.23&#10;  Q 613.14 556.36 613.17 553.78&#10;  Q 613.18 553.28 612.76 552.49&#10;  Q 612.34 551.68 611.87 551.34&#10;  A 0.49 0.48 43.6 0 1 611.85 550.56&#10;  Z&#10;  M 625.06 554.12&#10;  Q 626.59 554.14 627.68 554.16&#10;  Q 628.27 554.17 628.46 554.73&#10;  L 629.53 557.99&#10;  A 1.15 1.14 -7.1 0 0 630.54 558.78&#10;  Q 630.85 558.80 630.99 558.81&#10;  Q 632.00 558.89 631.67 557.94&#10;  Q 629.96 552.90 626.78 544.14&#10;  Q 626.57 543.56 626.19 543.34&#10;  Q 625.74 543.08 625.14 543.07&#10;  Q 624.57 543.07 624.11 543.32&#10;  Q 623.73 543.54 623.51 544.11&#10;  Q 620.18 552.81 618.37 557.82&#10;  Q 618.02 558.76 619.03 558.70&#10;  Q 619.17 558.69 619.48 558.68&#10;  A 1.15 1.14 8.1 0 0 620.51 557.91&#10;  L 621.64 554.67&#10;  Q 621.84 554.11 622.43 554.11&#10;  Q 623.52 554.11 625.06 554.12&#10;  Z&#10;  M 641.83 558.73&#10;  Q 642.31 558.73 642.49 558.72&#10;  Q 642.96 558.68 642.96 558.21&#10;  L 642.96 545.48&#10;  A 0.53 0.53 0.0 0 1 643.49 544.95&#10;  L 647.28 544.95&#10;  Q 648.19 544.95 648.19 544.03&#10;  L 648.19 543.76&#10;  A 0.64 0.63 89.9 0 0 647.56 543.12&#10;  Q 644.78 543.11 641.77 543.14&#10;  Q 638.75 543.14 635.98 543.17&#10;  A 0.64 0.63 89.6 0 0 635.35 543.81&#10;  L 635.35 544.08&#10;  Q 635.36 545.00 636.27 545.00&#10;  L 640.06 544.96&#10;  A 0.53 0.53 0.0 0 1 640.59 545.49&#10;  L 640.70 558.22&#10;  Q 640.70 558.69 641.18 558.72&#10;  Q 641.36 558.74 641.83 558.73&#10;  Z&#10;  M 655.2325 543.8018&#10;  A 0.70 0.70 0.0 0 0 654.5337 543.1006&#10;  L 653.8937 543.0995&#10;  A 0.70 0.70 0.0 0 0 653.1925 543.7982&#10;  L 653.1675 558.0782&#10;  A 0.70 0.70 0.0 0 0 653.8663 558.7794&#10;  L 654.5063 558.7805&#10;  A 0.70 0.70 0.0 0 0 655.2075 558.0818&#10;  L 655.2325 543.8018&#10;  Z&#10;  M 688.53 550.41&#10;  Q 686.45 547.26 684.20 543.59&#10;  A 1.00 0.98 73.9 0 0 683.36 543.11&#10;  L 682.21 543.11&#10;  Q 681.54 543.11 681.54 543.78&#10;  L 681.54 558.16&#10;  Q 681.54 558.70 682.09 558.70&#10;  L 682.55 558.70&#10;  Q 683.40 558.70 683.40 557.86&#10;  L 683.40 547.30&#10;  Q 683.40 545.98 684.09 547.10&#10;  Q 685.65 549.59 686.84 551.40&#10;  Q 688.93 554.54 691.17 558.22&#10;  A 1.00 0.98 73.9 0 0 692.02 558.69&#10;  L 693.17 558.69&#10;  Q 693.84 558.69 693.84 558.02&#10;  L 693.84 543.64&#10;  Q 693.84 543.10 693.29 543.10&#10;  L 692.83 543.10&#10;  Q 691.98 543.10 691.98 543.94&#10;  L 691.98 554.50&#10;  Q 691.98 555.82 691.28 554.70&#10;  Q 689.73 552.21 688.53 550.41&#10;  Z&#10;  M 308.91 558.67&#10;  A 0.11 0.11 0.0 0 0 309.02 558.56&#10;  L 309.02 546.15&#10;  A 0.11 0.11 0.0 0 1 309.24 546.12&#10;  L 313.34 558.61&#10;  A 0.11 0.11 0.0 0 0 313.45 558.69&#10;  L 315.36 558.69&#10;  A 0.11 0.11 0.0 0 0 315.47 558.62&#10;  L 319.79 545.99&#10;  A 0.11 0.11 0.0 0 1 319.90 545.92&#10;  L 319.90 545.92&#10;  A 0.11 0.11 0.0 0 1 320.01 546.03&#10;  L 320.01 558.55&#10;  A 0.11 0.11 0.0 0 0 320.12 558.66&#10;  L 321.82 558.66&#10;  A 0.11 0.11 0.0 0 0 321.93 558.55&#10;  L 321.93 543.28&#10;  A 0.11 0.11 0.0 0 0 321.82 543.17&#10;  L 318.98 543.17&#10;  A 0.11 0.11 0.0 0 0 318.87 543.24&#10;  L 314.48 556.05&#10;  A 0.11 0.11 0.0 0 1 314.27 556.05&#10;  L 310.08 543.30&#10;  A 0.11 0.11 0.0 0 0 309.97 543.22&#10;  L 306.95 543.22&#10;  A 0.11 0.11 0.0 0 0 306.84 543.33&#10;  L 306.84 558.56&#10;  A 0.11 0.11 0.0 0 0 306.95 558.67&#10;  L 308.91 558.67&#10;  Z"/>
<path fill="#111111" d="&#10;  M 438.96 162.56&#10;  Q 439.04 162.27 439.15 162.15&#10;  Q 452.37 149.28 465.38 136.19&#10;  Q 468.47 133.08 471.51 130.26&#10;  Q 472.13 129.68 474.41 127.17&#10;  Q 475.69 125.77 477.51 124.26&#10;  Q 479.44 122.66 484.54 117.26&#10;  Q 485.92 115.79 486.95 115.24&#10;  Q 487.99 114.67 488.47 113.71&#10;  Q 488.85 112.95 489.83 112.06&#10;  Q 490.46 111.49 493.52 108.43&#10;  Q 493.57 108.38 496.61 105.71&#10;  Q 498.13 104.38 499.55 102.18&#10;  Q 499.83 101.75 500.30 101.52&#10;  Q 501.49 100.94 502.47 99.77&#10;  A 2.15 2.10 7.7 0 1 503.25 99.19&#10;  Q 506.68 97.73 508.83 95.78&#10;  Q 509.21 95.44 509.70 95.33&#10;  Q 511.88 94.84 512.98 94.12&#10;  Q 514.50 93.12 516.15 92.74&#10;  C 519.35 92.00 522.76 90.48 525.63 89.81&#10;  Q 535.38 87.51 546.08 89.02&#10;  Q 550.11 89.58 552.79 90.50&#10;  C 555.64 91.47 558.81 92.01 561.47 93.26&#10;  Q 583.60 103.67 592.96 125.71&#10;  Q 595.75 132.28 596.62 140.23&#10;  C 597.38 147.18 597.18 154.30 595.44 160.97&#10;  Q 595.17 162.04 594.19 166.58&#10;  A 3.22 3.22 0.0 0 1 588.77 168.18&#10;  L 572.45 151.86&#10;  A 3.83 3.82 19.6 0 1 571.35 149.55&#10;  Q 570.87 144.85 570.66 142.78&#10;  C 570.41 140.32 569.31 138.08 568.75 136.13&#10;  Q 568.51 135.25 567.98 134.48&#10;  Q 567.62 133.95 567.52 133.36&#10;  Q 567.41 132.65 566.98 132.20&#10;  Q 566.54 131.73 565.38 129.45&#10;  Q 564.60 127.89 563.65 126.97&#10;  Q 561.41 124.79 559.59 122.85&#10;  Q 557.24 120.34 554.92 119.18&#10;  Q 548.04 115.72 544.57 115.27&#10;  Q 536.49 114.20 527.44 116.45&#10;  Q 526.54 116.68 523.34 118.25&#10;  Q 521.80 119.01 521.55 120.16&#10;  Q 521.18 121.84 524.30 124.97&#10;  Q 527.21 127.89 580.52 181.74&#10;  Q 585.66 186.93 588.46 191.60&#10;  Q 601.41 213.21 594.86 238.67&#10;  Q 592.77 246.81 586.71 256.08&#10;  Q 584.39 259.62 580.37 263.52&#10;  Q 574.39 269.32 573.10 270.10&#10;  Q 570.04 271.96 566.99 273.86&#10;  Q 566.91 273.91 566.02 274.68&#10;  C 565.34 275.27 564.48 275.16 563.76 275.52&#10;  Q 562.00 276.40 560.63 277.08&#10;  Q 559.21 277.78 557.36 278.21&#10;  Q 556.48 278.42 553.12 279.56&#10;  Q 550.61 280.41 548.86 280.71&#10;  Q 533.61 283.32 518.92 278.56&#10;  Q 517.04 277.95 516.62 277.25&#10;  C 515.89 276.02 516.11 274.61 517.21 273.51&#10;  Q 529.59 261.13 533.27 257.39&#10;  Q 534.86 255.77 539.08 255.42&#10;  Q 543.72 255.03 548.15 253.95&#10;  C 550.37 253.41 552.45 251.82 554.93 250.80&#10;  Q 556.30 250.24 557.35 249.15&#10;  Q 557.38 249.12 560.17 246.60&#10;  Q 561.83 245.10 562.83 243.91&#10;  Q 573.50 231.20 569.88 214.57&#10;  C 569.54 213.01 568.53 211.04 568.00 209.18&#10;  Q 567.57 207.71 567.01 207.14&#10;  Q 565.78 205.90 564.08 206.22&#10;  Q 562.99 206.43 561.75 207.66&#10;  Q 522.98 245.98 504.35 264.60&#10;  Q 498.91 270.04 495.15 272.28&#10;  Q 491.23 274.63 484.41 277.65&#10;  Q 484.09 277.79 483.74 277.76&#10;  Q 483.47 277.72 483.29 277.80&#10;  Q 477.15 280.37 470.99 281.13&#10;  Q 463.34 282.07 457.62 281.55&#10;  Q 451.34 280.99 446.89 279.37&#10;  Q 442.41 277.73 440.96 277.43&#10;  C 439.18 277.06 437.74 275.72 436.09 275.38&#10;  Q 435.29 275.21 435.01 274.48&#10;  Q 434.83 274.04 434.36 274.05&#10;  Q 434.03 274.05 433.71 273.84&#10;  Q 430.21 271.48 428.48 270.40&#10;  Q 426.12 268.90 423.35 266.40&#10;  Q 408.62 253.13 404.91 233.80&#10;  Q 402.96 223.65 404.65 212.05&#10;  Q 404.93 210.14 405.67 207.59&#10;  Q 406.69 204.06 406.98 203.24&#10;  Q 407.90 200.66 410.13 201.10&#10;  Q 411.30 201.33 413.04 203.05&#10;  Q 422.64 212.56 428.08 218.12&#10;  Q 429.85 219.94 429.92 223.04&#10;  Q 430.02 228.20 432.08 233.36&#10;  Q 432.15 233.52 432.19 234.02&#10;  Q 432.24 234.49 432.26 234.55&#10;  Q 438.01 247.98 451.27 253.42&#10;  Q 452.99 254.12 454.83 254.32&#10;  Q 455.47 254.39 457.28 254.80&#10;  Q 458.61 255.09 459.74 255.14&#10;  Q 464.63 255.37 468.46 254.67&#10;  Q 472.30 253.97 473.06 253.76&#10;  Q 475.28 253.15 477.43 251.90&#10;  C 480.64 250.03 479.42 248.04 477.38 245.96&#10;  Q 454.13 222.28 430.56 198.89&#10;  A 0.20 0.08 54.5 0 1 430.49 198.62&#10;  Q 430.56 198.64 430.59 198.56&#10;  Q 430.62 198.49 430.55 198.41&#10;  Q 424.82 192.39 418.89 186.60&#10;  Q 415.13 182.92 413.41 180.28&#10;  Q 411.19 176.89 409.18 172.96&#10;  Q 407.78 170.20 407.36 168.35&#10;  Q 406.98 166.64 405.87 163.64&#10;  Q 404.78 160.68 404.67 157.53&#10;  Q 404.59 155.38 404.23 153.33&#10;  Q 403.86 151.16 403.88 149.17&#10;  Q 403.96 140.48 404.70 136.12&#10;  Q 404.95 134.62 406.64 129.37&#10;  Q 406.65 129.33 407.47 126.34&#10;  Q 407.89 124.81 408.61 123.59&#10;  Q 409.74 121.67 410.06 121.02&#10;  Q 413.16 114.61 416.75 110.73&#10;  Q 418.65 108.67 419.27 107.93&#10;  Q 420.78 106.13 421.83 105.15&#10;  Q 423.90 103.21 427.96 99.70&#10;  Q 429.39 98.47 430.72 97.80&#10;  Q 432.67 96.83 433.67 96.15&#10;  Q 434.00 95.93 434.43 95.89&#10;  Q 434.83 95.86 434.96 95.85&#10;  Q 435.13 95.84 435.45 95.68&#10;  Q 438.15 94.24 439.44 93.44&#10;  Q 440.82 92.57 443.68 91.93&#10;  C 446.32 91.35 449.42 89.87 452.58 89.34&#10;  Q 462.53 87.67 473.20 89.32&#10;  C 476.75 89.86 480.29 91.56 483.71 92.32&#10;  A 0.77 0.76 -88.9 0 1 484.29 92.93&#10;  Q 484.97 96.73 481.67 98.22&#10;  Q 481.21 98.42 480.95 98.86&#10;  Q 479.89 100.60 478.33 101.45&#10;  Q 477.89 101.70 477.63 102.14&#10;  Q 476.44 104.19 474.28 105.45&#10;  A 1.75 1.65 -3.0 0 0 473.64 106.12&#10;  Q 472.90 107.56 472.22 107.97&#10;  Q 470.73 108.86 469.90 110.00&#10;  Q 468.96 111.29 468.29 111.69&#10;  Q 467.23 112.33 466.49 113.28&#10;  Q 466.10 113.77 465.36 114.09&#10;  Q 464.35 114.54 464.00 114.57&#10;  Q 458.46 115.03 451.68 116.73&#10;  C 449.75 117.21 448.72 118.31 446.91 118.86&#10;  Q 445.85 119.18 445.03 119.77&#10;  Q 440.44 123.09 436.51 127.80&#10;  Q 435.37 129.16 434.90 130.48&#10;  Q 434.71 131.01 433.76 132.28&#10;  Q 433.21 133.02 432.84 134.14&#10;  Q 431.40 138.52 430.47 142.43&#10;  C 429.01 148.54 430.92 153.69 432.15 159.72&#10;  Q 432.49 161.37 434.15 163.27&#10;  Q 434.93 164.15 436.18 164.20&#10;  Q 437.64 164.26 438.50 163.37&#10;  Q 438.83 163.02 438.96 162.56&#10;  Z&#10;  M 505.33 226.55&#10;  Q 505.56 226.43 505.99 226.00&#10;  Q 529.73 202.68 530.37 202.09&#10;  Q 534.38 198.35 540.29 196.57&#10;  Q 548.09 194.23 555.86 196.68&#10;  Q 557.59 197.23 557.43 195.62&#10;  A 1.30 1.25 -67.6 0 0 557.19 195.01&#10;  Q 555.74 193.09 552.78 190.18&#10;  Q 530.92 168.63 523.30 160.99&#10;  Q 518.49 156.16 516.80 153.89&#10;  Q 513.39 149.30 512.26 145.46&#10;  Q 510.20 138.48 512.56 129.17&#10;  Q 512.95 127.63 511.84 127.45&#10;  Q 511.39 127.37 511.06 127.70&#10;  Q 496.65 142.07 471.94 166.45&#10;  Q 468.26 170.08 462.90 172.44&#10;  Q 458.69 174.29 453.86 174.23&#10;  Q 448.98 174.18 444.51 173.28&#10;  Q 443.61 173.10 443.38 173.92&#10;  A 1.06 1.05 -60.0 0 0 443.65 174.94&#10;  Q 463.61 194.78 483.34 214.67&#10;  Q 484.82 216.17 487.61 220.77&#10;  Q 488.12 221.62 488.34 222.86&#10;  C 488.64 224.55 489.63 226.51 489.90 228.09&#10;  Q 490.76 233.25 489.51 238.37&#10;  Q 488.21 243.67 492.10 239.84&#10;  L 505.01 227.15&#10;  Q 505.13 227.03 505.13 226.97&#10;  Q 505.12 226.88 505.12 226.85&#10;  Q 505.12 226.67 505.33 226.55&#10;  Z"/>
<path fill="#f9f4d8" d="&#10;  M 505.12 226.85&#10;  Q 505.12 226.88 505.13 226.97&#10;  Q 505.13 227.03 505.01 227.15&#10;  L 492.10 239.84&#10;  Q 488.21 243.67 489.51 238.37&#10;  Q 490.76 233.25 489.90 228.09&#10;  C 489.63 226.51 488.64 224.55 488.34 222.86&#10;  Q 488.12 221.62 487.61 220.77&#10;  Q 484.82 216.17 483.34 214.67&#10;  Q 463.61 194.78 443.65 174.94&#10;  A 1.06 1.05 -60.0 0 1 443.38 173.92&#10;  Q 443.61 173.10 444.51 173.28&#10;  Q 448.98 174.18 453.86 174.23&#10;  Q 458.69 174.29 462.90 172.44&#10;  Q 468.26 170.08 471.94 166.45&#10;  Q 496.65 142.07 511.06 127.70&#10;  Q 511.39 127.37 511.84 127.45&#10;  Q 512.95 127.63 512.56 129.17&#10;  Q 510.20 138.48 512.26 145.46&#10;  Q 513.39 149.30 516.80 153.89&#10;  Q 518.49 156.16 523.30 160.99&#10;  Q 530.92 168.63 552.78 190.18&#10;  Q 555.74 193.09 557.19 195.01&#10;  A 1.30 1.25 -67.6 0 1 557.43 195.62&#10;  Q 557.59 197.23 555.86 196.68&#10;  Q 548.09 194.23 540.29 196.57&#10;  Q 534.38 198.35 530.37 202.09&#10;  Q 529.73 202.68 505.99 226.00&#10;  Q 505.56 226.43 505.33 226.55&#10;  Q 505.12 226.67 505.12 226.85&#10;  Z"/>
<path fill="#111111" d="&#10;  M 627.35 357.53&#10;  Q 628.96 355.76 632.25 354.82&#10;  Q 634.18 354.27 636.04 353.01&#10;  Q 637.32 352.15 640.44 351.36&#10;  Q 642.67 350.79 644.87 350.00&#10;  Q 648.97 348.51 652.57 347.86&#10;  Q 667.57 345.15 682.97 346.88&#10;  Q 696.32 348.37 708.90 354.35&#10;  Q 717.10 358.25 722.74 363.02&#10;  Q 733.32 371.98 741.30 384.84&#10;  A 0.86 0.86 0.0 0 1 741.06 385.99&#10;  L 713.43 405.17&#10;  Q 713.05 405.42 712.84 405.02&#10;  Q 712.01 403.44 710.74 402.25&#10;  C 710.25 401.78 710.18 401.37 709.97 400.68&#10;  Q 709.88 400.34 709.79 400.24&#10;  Q 705.39 395.07 705.22 394.88&#10;  Q 702.36 391.83 698.06 388.46&#10;  Q 694.63 385.76 689.89 383.78&#10;  Q 676.16 378.03 662.99 379.92&#10;  Q 649.28 381.89 638.45 391.33&#10;  C 636.08 393.39 633.97 396.21 631.70 399.04&#10;  Q 630.21 400.90 629.41 402.43&#10;  Q 625.99 408.95 623.65 416.78&#10;  A 1.21 1.21 0.0 0 0 623.72 417.69&#10;  Q 623.96 418.19 623.82 418.78&#10;  Q 621.93 426.35 622.88 432.48&#10;  Q 623.02 433.37 623.38 437.08&#10;  Q 623.64 439.69 624.14 441.64&#10;  Q 627.29 453.77 635.70 462.84&#10;  Q 642.48 470.16 652.05 473.95&#10;  Q 669.08 480.68 687.38 474.86&#10;  Q 690.54 473.85 693.34 471.95&#10;  C 694.60 471.09 696.28 470.77 697.26 469.95&#10;  Q 699.13 468.40 700.16 467.85&#10;  Q 701.68 467.05 702.93 465.66&#10;  Q 703.15 465.41 706.39 462.37&#10;  Q 709.12 459.80 712.39 454.65&#10;  Q 713.12 453.50 713.93 452.37&#10;  Q 714.25 451.93 714.70 452.24&#10;  L 741.60 470.99&#10;  Q 742.17 471.39 741.82 471.98&#10;  Q 733.93 485.22 721.82 494.80&#10;  Q 713.87 501.09 703.01 505.53&#10;  Q 702.61 505.69 702.40 505.73&#10;  Q 701.47 505.89 701.46 505.90&#10;  Q 696.52 507.96 690.47 509.12&#10;  Q 675.61 511.99 661.40 510.35&#10;  Q 655.46 509.67 652.13 509.28&#10;  Q 650.14 509.06 643.10 506.36&#10;  Q 641.99 505.94 639.89 505.48&#10;  Q 638.16 505.11 636.70 504.33&#10;  Q 635.37 503.63 633.88 502.85&#10;  Q 632.33 502.03 631.00 501.73&#10;  Q 629.21 501.31 628.19 500.30&#10;  Q 627.32 499.44 625.77 498.68&#10;  Q 623.86 497.73 623.26 497.26&#10;  Q 621.37 495.76 618.99 494.35&#10;  Q 616.30 492.74 615.61 492.08&#10;  Q 611.56 488.20 606.78 483.58&#10;  Q 603.84 480.74 596.87 469.74&#10;  Q 595.20 467.12 594.42 465.15&#10;  Q 593.59 463.07 591.95 460.37&#10;  Q 591.69 459.94 591.67 459.14&#10;  Q 591.65 458.46 591.39 457.93&#10;  Q 589.95 455.08 588.04 446.70&#10;  Q 583.96 428.81 587.69 412.29&#10;  Q 588.10 410.48 588.40 408.52&#10;  Q 588.69 406.60 589.33 404.83&#10;  Q 590.93 400.34 591.25 399.13&#10;  Q 592.16 395.69 593.33 394.00&#10;  Q 594.19 392.77 594.93 390.64&#10;  Q 595.26 389.68 596.70 387.37&#10;  Q 601.24 380.05 605.18 375.14&#10;  Q 607.72 371.97 611.83 368.26&#10;  Q 611.96 368.14 612.04 368.13&#10;  Q 612.12 368.11 612.16 368.11&#10;  Q 612.32 368.12 612.38 368.02&#10;  Q 612.94 367.12 621.02 361.30&#10;  Q 625.07 358.39 626.56 358.01&#10;  Q 627.03 357.89 627.35 357.53&#10;  Z"/>
<path fill="#111111" d="&#10;  M 314.79 460.61&#10;  Q 314.12 460.12 313.93 459.19&#10;  Q 313.89 459.00 313.53 458.22&#10;  L 294.18 415.63&#10;  Q 293.40 413.89 293.39 415.79&#10;  L 293.14 507.78&#10;  Q 293.14 507.99 292.93 507.99&#10;  L 259.15 507.99&#10;  Q 258.56 507.99 258.56 507.40&#10;  L 258.56 350.05&#10;  Q 258.56 349.41 259.20 349.41&#10;  L 301.17 349.41&#10;  Q 301.64 349.41 301.83 349.85&#10;  L 348.07 453.99&#10;  Q 348.30 454.50 348.50 453.98&#10;  Q 350.11 449.74 351.91 445.96&#10;  Q 351.93 445.90 352.09 445.15&#10;  Q 352.18 444.70 352.33 444.43&#10;  Q 354.21 441.14 355.03 438.89&#10;  Q 356.14 435.86 357.47 433.34&#10;  Q 357.49 433.30 359.95 427.76&#10;  Q 391.43 356.89 394.13 350.99&#10;  Q 394.37 350.47 394.47 349.88&#10;  Q 394.55 349.41 395.02 349.41&#10;  L 437.65 349.41&#10;  A 0.36 0.35 -90.0 0 1 438.00 349.77&#10;  L 438.00 507.49&#10;  Q 438.00 507.99 437.51 507.99&#10;  L 403.05 507.99&#10;  Q 402.55 507.99 402.55 507.50&#10;  L 402.55 412.87&#10;  Q 402.55 412.76 402.51 412.86&#10;  L 359.75 507.40&#10;  A 1.02 1.00 -77.7 0 1 358.83 508.00&#10;  L 336.53 508.00&#10;  Q 335.99 508.00 335.77 507.51&#10;  L 314.97 461.67&#10;  Q 314.87 461.46 314.87 461.22&#10;  L 314.87 460.76&#10;  Q 314.87 460.66 314.79 460.61&#10;  Z"/>
<path fill="#111111" d="&#10;  M 573.62 475.85&#10;  L 573.62 507.68&#10;  A 0.31 0.31 0.0 0 1 573.31 507.99&#10;  L 457.54 507.99&#10;  A 0.31 0.31 0.0 0 1 457.23 507.68&#10;  L 457.23 349.73&#10;  A 0.31 0.31 0.0 0 1 457.54 349.42&#10;  L 573.10 349.42&#10;  A 0.31 0.31 0.0 0 1 573.41 349.73&#10;  L 573.41 381.36&#10;  A 0.31 0.31 0.0 0 1 573.10 381.67&#10;  L 493.52 381.67&#10;  A 0.31 0.31 0.0 0 0 493.21 381.98&#10;  L 493.21 411.36&#10;  A 0.31 0.31 0.0 0 0 493.52 411.67&#10;  L 567.10 411.67&#10;  A 0.31 0.31 0.0 0 1 567.41 411.98&#10;  L 567.41 442.81&#10;  A 0.31 0.31 0.0 0 1 567.10 443.12&#10;  L 493.52 443.12&#10;  A 0.31 0.31 0.0 0 0 493.21 443.43&#10;  L 493.21 475.23&#10;  A 0.31 0.31 0.0 0 0 493.52 475.54&#10;  L 573.31 475.54&#10;  A 0.31 0.31 0.0 0 1 573.62 475.85&#10;  Z"/>
<path fill="#111111" d="&#10;  M 371.48 557.25&#10;  Q 373.64 556.89 374.86 553.68&#10;  Q 375.06 553.15 375.62 553.08&#10;  Q 376.17 553.01 376.68 553.21&#10;  Q 377.16 553.38 377.04 553.87&#10;  Q 376.09 557.77 372.76 558.75&#10;  C 369.65 559.66 366.02 559.03 364.36 555.80&#10;  Q 362.28 551.72 363.71 547.81&#10;  Q 366.14 541.22 373.32 543.30&#10;  Q 376.28 544.15 376.77 547.21&#10;  Q 376.85 547.72 376.38 547.92&#10;  Q 375.56 548.27 375.03 547.41&#10;  C 373.93 545.63 373.24 544.72 371.21 544.58&#10;  Q 367.35 544.31 365.89 548.18&#10;  C 365.32 549.68 365.33 553.62 366.46 555.15&#10;  Q 368.39 557.77 371.48 557.25&#10;  Z"/>
<path fill="#111111" d="&#10;  M 403.13 547.28&#10;  A 1.46 1.45 -75.8 0 0 404.08 548.89&#10;  Q 405.78 549.48 407.88 549.96&#10;  Q 410.46 550.54 411.31 551.18&#10;  Q 413.00 552.45 412.84 554.85&#10;  Q 412.68 557.20 410.74 558.32&#10;  Q 409.09 559.27 406.36 559.14&#10;  Q 400.95 558.90 400.53 554.44&#10;  Q 400.47 553.85 401.06 553.76&#10;  Q 401.45 553.69 401.88 553.83&#10;  Q 402.25 553.95 402.55 554.49&#10;  Q 403.35 555.96 403.70 556.51&#10;  Q 403.98 556.94 404.48 557.06&#10;  Q 407.85 557.89 410.09 556.37&#10;  A 2.01 2.01 0.0 0 0 410.90 554.13&#10;  Q 410.51 552.83 409.05 552.46&#10;  C 405.27 551.50 400.64 551.05 401.00 547.06&#10;  C 401.37 543.02 405.54 542.25 408.90 543.10&#10;  Q 412.49 544.01 412.29 547.25&#10;  Q 412.25 547.79 411.72 547.84&#10;  Q 411.01 547.90 410.83 547.51&#10;  Q 409.03 543.63 405.16 544.56&#10;  C 403.52 544.96 403.35 545.94 403.13 547.28&#10;  Z"/>
<path fill="#111111" d="&#10;  M 514.28 557.24&#10;  Q 516.44 556.86 517.63 553.64&#10;  Q 517.83 553.11 518.39 553.03&#10;  Q 518.94 552.96 519.45 553.16&#10;  Q 519.93 553.32 519.81 553.81&#10;  Q 518.89 557.72 515.57 558.72&#10;  C 512.47 559.66 508.83 559.06 507.15 555.84&#10;  Q 505.04 551.78 506.44 547.86&#10;  Q 508.82 541.25 516.01 543.27&#10;  Q 518.98 544.10 519.49 547.16&#10;  Q 519.57 547.67 519.11 547.87&#10;  Q 518.29 548.23 517.75 547.37&#10;  C 516.64 545.60 515.94 544.70 513.91 544.57&#10;  Q 510.05 544.33 508.62 548.21&#10;  C 508.06 549.71 508.10 553.65 509.24 555.17&#10;  Q 511.19 557.78 514.28 557.24&#10;  Z"/>
<path fill="#111111" d="&#10;  M 531.9357 559.2975&#10;  A 8.36 7.76 91.4 0 1 524.3823 550.7504&#10;  A 8.36 7.76 91.4 0 1 532.3443 542.5825&#10;  A 8.36 7.76 91.4 0 1 539.8977 551.1296&#10;  A 8.36 7.76 91.4 0 1 531.9357 559.2975&#10;  Z&#10;  M 532.0127 557.3496&#10;  A 6.43 5.48 90.6 0 0 537.5597 550.9774&#10;  A 6.43 5.48 90.6 0 0 532.1473 544.4904&#10;  A 6.43 5.48 90.6 0 0 526.6003 550.8626&#10;  A 6.43 5.48 90.6 0 0 532.0127 557.3496&#10;  Z"/>
<path fill="#111111" d="&#10;  M 587.8455 559.2700&#10;  A 8.33 7.77 90.1 0 1 580.0900 550.9264&#10;  A 8.33 7.77 90.1 0 1 587.8745 542.6100&#10;  A 8.33 7.77 90.1 0 1 595.6300 550.9536&#10;  A 8.33 7.77 90.1 0 1 587.8455 559.2700&#10;  Z&#10;  M 587.6862 557.3788&#10;  A 6.45 5.41 91.1 0 0 593.2190 551.0339&#10;  A 6.45 5.41 91.1 0 0 587.9338 544.4812&#10;  A 6.45 5.41 91.1 0 0 582.4010 550.8261&#10;  A 6.45 5.41 91.1 0 0 587.6862 557.3788&#10;  Z"/>
<path fill="#111111" d="&#10;  M 668.6218 559.2794&#10;  A 8.33 7.76 89.3 0 1 660.7606 551.0448&#10;  A 8.33 7.76 89.3 0 1 668.4182 542.6206&#10;  A 8.33 7.76 89.3 0 1 676.2794 550.8552&#10;  A 8.33 7.76 89.3 0 1 668.6218 559.2794&#10;  Z&#10;  M 668.3316 557.3075&#10;  A 6.39 5.45 91.6 0 0 673.9579 551.0722&#10;  A 6.39 5.45 91.6 0 0 668.6884 544.5325&#10;  A 6.39 5.45 91.6 0 0 663.0621 550.7678&#10;  A 6.39 5.45 91.6 0 0 668.3316 557.3075&#10;  Z"/>
<path fill="#111111" d="&#10;  M 333.61 554.16&#10;  Q 332.08 554.15 330.98 554.15&#10;  Q 330.39 554.15 330.19 554.71&#10;  L 329.05 557.96&#10;  A 1.15 1.15 0.0 0 1 328.02 558.73&#10;  Q 327.71 558.75 327.57 558.75&#10;  Q 326.55 558.81 326.90 557.87&#10;  Q 328.72 552.85 332.07 544.12&#10;  Q 332.29 543.54 332.68 543.32&#10;  Q 333.14 543.07 333.74 543.07&#10;  Q 334.31 543.08 334.76 543.34&#10;  Q 335.14 543.57 335.35 544.15&#10;  Q 338.53 552.94 340.25 558.00&#10;  Q 340.58 558.95 339.57 558.87&#10;  Q 339.43 558.86 339.12 558.84&#10;  A 1.15 1.15 0.0 0 1 338.10 558.05&#10;  L 337.03 554.77&#10;  Q 336.84 554.21 336.25 554.20&#10;  Q 335.15 554.18 333.61 554.16&#10;  Z&#10;  M 331.22 551.78&#10;  A 0.32 0.32 0.0 0 0 331.50 552.22&#10;  L 335.51 552.40&#10;  A 0.32 0.32 0.0 0 0 335.83 551.98&#10;  L 334.08 546.12&#10;  A 0.32 0.32 0.0 0 0 333.48 546.09&#10;  L 331.22 551.78&#10;  Z"/>
<path fill="#111111" d="&#10;  M 356.51 551.40&#10;  Q 356.98 551.74 357.40 552.55&#10;  Q 357.82 553.35 357.81 553.85&#10;  Q 357.77 556.44 358.36 558.31&#10;  A 0.34 0.34 0.0 0 1 358.04 558.75&#10;  L 356.38 558.75&#10;  Q 355.63 558.75 355.73 558.01&#10;  Q 355.99 556.12 355.46 553.73&#10;  Q 355.08 552.02 353.32 552.02&#10;  L 349.00 552.02&#10;  Q 347.68 552.02 347.68 553.34&#10;  L 347.68 557.89&#10;  A 0.87 0.87 0.0 0 1 346.81 558.76&#10;  L 346.39 558.76&#10;  Q 345.61 558.76 345.61 557.98&#10;  L 345.61 543.73&#10;  Q 345.61 543.17 346.17 543.16&#10;  Q 351.55 542.99 355.17 543.40&#10;  Q 356.67 543.57 357.42 544.98&#10;  Q 359.25 548.42 356.49 550.62&#10;  A 0.49 0.49 0.0 0 0 356.51 551.40&#10;  Z&#10;  M 347.70 545.22&#10;  L 347.72 549.92&#10;  A 0.38 0.38 0.0 0 0 348.10 550.30&#10;  L 353.17 550.28&#10;  A 2.53 1.95 -0.2 0 0 355.69 548.33&#10;  L 355.69 546.77&#10;  A 2.53 1.95 -0.2 0 0 353.15 544.82&#10;  L 348.08 544.84&#10;  A 0.38 0.38 0.0 0 0 347.70 545.22&#10;  Z"/>
<path fill="#111111" d="&#10;  M 388.68 557.30&#10;  Q 392.13 557.34 392.72 553.48&#10;  Q 392.95 551.99 392.94 543.82&#10;  Q 392.94 543.17 393.59 543.17&#10;  L 394.26 543.17&#10;  Q 394.96 543.17 394.97 543.87&#10;  Q 395.02 548.13 394.84 553.51&#10;  C 394.70 557.43 392.27 559.08 388.66 559.04&#10;  C 385.05 559.01 382.65 557.31 382.60 553.38&#10;  Q 382.52 548.00 382.66 543.75&#10;  Q 382.68 543.05 383.38 543.06&#10;  L 384.05 543.07&#10;  Q 384.70 543.09 384.69 543.74&#10;  Q 384.51 551.90 384.71 553.40&#10;  Q 385.23 557.27 388.68 557.30&#10;  Z"/>
<path fill="#111111" d="&#10;  M 438.19 550.88&#10;  Q 438.19 551.06 438.16 551.19&#10;  Q 438.05 551.67 437.56 551.67&#10;  L 429.92 551.67&#10;  Q 429.47 551.67 429.47 552.12&#10;  L 429.47 556.40&#10;  Q 429.47 556.87 429.95 556.87&#10;  L 438.29 556.87&#10;  Q 439.12 556.87 439.12 557.71&#10;  L 439.12 558.11&#10;  A 0.53 0.52 90.0 0 1 438.60 558.64&#10;  L 427.79 558.64&#10;  A 0.36 0.36 0.0 0 1 427.43 558.28&#10;  Q 427.42 556.65 427.43 550.87&#10;  Q 427.43 545.10 427.44 543.46&#10;  A 0.36 0.36 0.0 0 1 427.80 543.10&#10;  L 438.61 543.11&#10;  A 0.53 0.52 -89.9 0 1 439.13 543.65&#10;  L 439.13 544.05&#10;  Q 439.13 544.89 438.30 544.88&#10;  L 429.96 544.88&#10;  Q 429.48 544.87 429.48 545.34&#10;  L 429.47 549.62&#10;  Q 429.47 550.07 429.92 550.08&#10;  L 437.56 550.08&#10;  Q 438.05 550.08 438.16 550.57&#10;  Q 438.19 550.69 438.19 550.88&#10;  Z"/>
<path fill="#111111" d="&#10;  M 447.25 556.92&#10;  L 454.22 556.92&#10;  Q 454.81 556.92 454.81 557.51&#10;  L 454.81 557.94&#10;  A 0.75 0.75 0.0 0 1 454.06 558.69&#10;  L 444.97 558.69&#10;  Q 444.52 558.69 444.52 558.24&#10;  L 444.52 543.53&#10;  Q 444.52 543.11 444.94 543.11&#10;  L 445.97 543.11&#10;  A 0.62 0.61 -90.0 0 1 446.58 543.73&#10;  L 446.58 556.25&#10;  Q 446.58 556.92 447.25 556.92&#10;  Z"/>
<path fill="#111111" d="&#10;  M 465.29 543.19&#10;  Q 465.86 543.19 466.31 543.46&#10;  Q 466.69 543.68 466.90 544.26&#10;  Q 470.09 553.04 471.81 558.09&#10;  Q 472.14 559.04 471.13 558.96&#10;  Q 470.99 558.95 470.68 558.93&#10;  A 1.15 1.15 0.0 0 1 469.66 558.14&#10;  L 468.59 554.87&#10;  Q 468.40 554.31 467.81 554.30&#10;  Q 466.71 554.28 465.18 554.26&#10;  Q 463.64 554.25 462.54 554.25&#10;  Q 461.95 554.25 461.75 554.81&#10;  L 460.63 558.06&#10;  A 1.15 1.15 0.0 0 1 459.59 558.83&#10;  Q 459.28 558.85 459.14 558.86&#10;  Q 458.13 558.92 458.48 557.97&#10;  Q 460.28 552.95 463.63 544.23&#10;  Q 463.85 543.66 464.23 543.44&#10;  Q 464.69 543.18 465.29 543.19&#10;  Z&#10;  M 462.83 551.85&#10;  A 0.37 0.37 0.0 0 0 463.17 552.34&#10;  L 467.10 552.41&#10;  A 0.37 0.37 0.0 0 0 467.46 551.93&#10;  L 465.60 545.96&#10;  A 0.37 0.37 0.0 0 0 464.90 545.95&#10;  L 462.83 551.85&#10;  Z"/>
<path fill="#111111" d="&#10;  M 484.35 555.67&#10;  Q 484.54 555.67 484.64 555.42&#10;  Q 487.03 549.12 488.57 543.66&#10;  Q 488.72 543.12 489.27 543.12&#10;  L 491.23 543.12&#10;  A 0.60 0.60 0.0 0 1 491.83 543.72&#10;  L 491.83 558.20&#10;  A 0.61 0.61 0.0 0 1 491.22 558.81&#10;  L 490.85 558.81&#10;  Q 489.99 558.81 489.98 557.94&#10;  Q 489.95 552.37 489.91 546.55&#10;  Q 489.91 546.35 489.81 546.25&#10;  Q 489.66 546.11 489.42 546.46&#10;  Q 489.35 546.58 489.31 546.71&#10;  Q 488.49 549.43 486.03 557.01&#10;  Q 485.46 558.79 484.36 558.80&#10;  Q 483.27 558.80 482.68 557.02&#10;  Q 480.17 549.46 479.34 546.74&#10;  Q 479.29 546.61 479.22 546.49&#10;  Q 478.98 546.15 478.83 546.29&#10;  Q 478.73 546.39 478.73 546.59&#10;  Q 478.73 552.41 478.74 557.98&#10;  Q 478.74 558.85 477.88 558.85&#10;  L 477.51 558.86&#10;  A 0.61 0.61 0.0 0 1 476.89 558.25&#10;  L 476.79 543.77&#10;  A 0.60 0.60 0.0 0 1 477.39 543.17&#10;  L 479.35 543.15&#10;  Q 479.90 543.15 480.05 543.69&#10;  Q 481.63 549.14 484.07 555.42&#10;  Q 484.16 555.67 484.35 555.67&#10;  Z"/>
<path fill="#111111" d="&#10;  M 556.18 551.35&#10;  L 556.99 551.72&#10;  A 0.88 0.87 -78.1 0 1 557.51 552.52&#10;  L 557.51 558.33&#10;  Q 557.51 558.82 557.01 558.82&#10;  L 556.63 558.82&#10;  Q 555.73 558.82 555.61 557.92&#10;  L 555.05 553.42&#10;  Q 554.87 552.00 553.43 552.00&#10;  L 548.03 552.00&#10;  Q 547.33 552.00 547.33 552.70&#10;  L 547.33 558.06&#10;  Q 547.33 558.78 546.61 558.78&#10;  L 545.74 558.78&#10;  A 0.53 0.52 -0.0 0 1 545.21 558.26&#10;  L 545.21 543.58&#10;  A 0.38 0.38 0.0 0 1 545.57 543.20&#10;  Q 551.13 542.92 554.42 543.36&#10;  Q 557.36 543.74 557.65 546.72&#10;  Q 557.90 549.36 556.11 550.67&#10;  Q 555.55 551.07 556.18 551.35&#10;  Z&#10;  M 547.33 545.31&#10;  L 547.35 549.79&#10;  A 0.54 0.54 0.0 0 0 547.89 550.33&#10;  L 552.43 550.32&#10;  A 3.08 2.65 -0.2 0 0 555.50 547.66&#10;  L 555.50 547.40&#10;  A 3.08 2.65 -0.2 0 0 552.41 544.76&#10;  L 547.87 544.77&#10;  A 0.54 0.54 0.0 0 0 547.33 545.31&#10;  Z"/>
<path fill="#111111" d="&#10;  M 565.98 552.71&#10;  L 565.98 558.06&#10;  Q 565.98 558.76 565.28 558.76&#10;  L 564.60 558.76&#10;  Q 563.84 558.76 563.84 558.00&#10;  L 563.84 543.71&#10;  Q 563.84 543.19 564.36 543.19&#10;  L 572.47 543.19&#10;  A 2.35 2.34 74.0 0 1 574.46 544.30&#10;  Q 576.41 547.45 574.36 550.93&#10;  Q 574.11 551.35 573.64 551.51&#10;  Q 571.18 552.31 566.63 552.09&#10;  Q 565.98 552.06 565.98 552.71&#10;  Z&#10;  M 565.98 545.22&#10;  L 565.98 549.90&#10;  A 0.44 0.44 0.0 0 0 566.42 550.34&#10;  L 570.45 550.34&#10;  A 2.89 2.49 -0.0 0 0 573.34 547.85&#10;  L 573.34 547.27&#10;  A 2.89 2.49 0.0 0 0 570.45 544.78&#10;  L 566.42 544.78&#10;  A 0.44 0.44 0.0 0 0 565.98 545.22&#10;  Z"/>
<path fill="#111111" d="&#10;  M 611.85 550.56&#10;  A 0.49 0.48 43.6 0 0 611.87 551.34&#10;  Q 612.34 551.68 612.76 552.49&#10;  Q 613.18 553.28 613.17 553.78&#10;  Q 613.14 556.36 613.73 558.23&#10;  A 0.34 0.34 0.0 0 1 613.41 558.67&#10;  L 611.75 558.67&#10;  Q 611.01 558.67 611.11 557.93&#10;  Q 611.36 556.05 610.83 553.67&#10;  Q 610.45 551.96 608.69 551.97&#10;  L 604.38 551.97&#10;  Q 603.07 551.98 603.07 553.29&#10;  L 603.08 557.83&#10;  A 0.87 0.87 0.0 0 1 602.22 558.70&#10;  L 601.80 558.70&#10;  Q 601.02 558.70 601.02 557.92&#10;  L 600.99 543.72&#10;  Q 600.99 543.16 601.55 543.15&#10;  Q 606.91 542.97 610.52 543.37&#10;  Q 612.01 543.54 612.76 544.94&#10;  Q 614.60 548.37 611.85 550.56&#10;  Z&#10;  M 603.08 545.37&#10;  L 603.08 549.73&#10;  A 0.57 0.57 0.0 0 0 603.65 550.30&#10;  L 608.47 550.30&#10;  A 2.71 2.26 -0.0 0 0 611.18 548.04&#10;  L 611.18 547.06&#10;  A 2.71 2.26 0.0 0 0 608.47 544.80&#10;  L 603.65 544.80&#10;  A 0.57 0.57 0.0 0 0 603.08 545.37&#10;  Z"/>
<path fill="#111111" d="&#10;  M 625.06 554.12&#10;  Q 623.52 554.11 622.43 554.11&#10;  Q 621.84 554.11 621.64 554.67&#10;  L 620.51 557.91&#10;  A 1.15 1.14 8.1 0 1 619.48 558.68&#10;  Q 619.17 558.69 619.03 558.70&#10;  Q 618.02 558.76 618.37 557.82&#10;  Q 620.18 552.81 623.51 544.11&#10;  Q 623.73 543.54 624.11 543.32&#10;  Q 624.57 543.07 625.14 543.07&#10;  Q 625.74 543.08 626.19 543.34&#10;  Q 626.57 543.56 626.78 544.14&#10;  Q 629.96 552.90 631.67 557.94&#10;  Q 632.00 558.89 630.99 558.81&#10;  Q 630.85 558.80 630.54 558.78&#10;  A 1.15 1.14 -7.1 0 1 629.53 557.99&#10;  L 628.46 554.73&#10;  Q 628.27 554.17 627.68 554.16&#10;  Q 626.59 554.14 625.06 554.12&#10;  Z&#10;  M 624.90 552.33&#10;  Q 625.87 552.33 626.53 552.29&#10;  A 0.53 0.53 0.0 0 0 627.01 551.63&#10;  Q 625.52 546.11 624.93 546.11&#10;  Q 624.33 546.11 622.80 551.61&#10;  A 0.53 0.53 0.0 0 0 623.27 552.28&#10;  Q 623.93 552.33 624.90 552.33&#10;  Z"/>
<path fill="#111111" d="&#10;  M 641.77 543.14&#10;  Q 644.78 543.11 647.56 543.12&#10;  A 0.64 0.63 89.9 0 1 648.19 543.76&#10;  L 648.19 544.03&#10;  Q 648.19 544.95 647.28 544.95&#10;  L 643.49 544.95&#10;  A 0.53 0.53 0.0 0 0 642.96 545.48&#10;  L 642.96 558.21&#10;  Q 642.96 558.68 642.49 558.72&#10;  Q 642.31 558.73 641.83 558.73&#10;  Q 641.36 558.74 641.18 558.72&#10;  Q 640.70 558.69 640.70 558.22&#10;  L 640.59 545.49&#10;  A 0.53 0.53 0.0 0 0 640.06 544.96&#10;  L 636.27 545.00&#10;  Q 635.36 545.00 635.35 544.08&#10;  L 635.35 543.81&#10;  A 0.64 0.63 89.6 0 1 635.98 543.17&#10;  Q 638.75 543.14 641.77 543.14&#10;  Z"/>
<rect fill="#111111" x="-1.02" y="-7.84" transform="translate(654.20,550.94) rotate(0.1)" width="2.04" height="15.68" rx="0.70"/>
<path fill="#111111" d="&#10;  M 686.84 551.40&#10;  Q 685.65 549.59 684.09 547.10&#10;  Q 683.40 545.98 683.40 547.30&#10;  L 683.40 557.86&#10;  Q 683.40 558.70 682.55 558.70&#10;  L 682.09 558.70&#10;  Q 681.54 558.70 681.54 558.16&#10;  L 681.54 543.78&#10;  Q 681.54 543.11 682.21 543.11&#10;  L 683.36 543.11&#10;  A 1.00 0.98 73.9 0 1 684.20 543.59&#10;  Q 686.45 547.26 688.53 550.41&#10;  Q 689.73 552.21 691.28 554.70&#10;  Q 691.98 555.82 691.98 554.50&#10;  L 691.98 543.94&#10;  Q 691.98 543.10 692.83 543.10&#10;  L 693.29 543.10&#10;  Q 693.84 543.10 693.84 543.64&#10;  L 693.84 558.02&#10;  Q 693.84 558.69 693.17 558.69&#10;  L 692.02 558.69&#10;  A 1.00 0.98 73.9 0 1 691.17 558.22&#10;  Q 688.93 554.54 686.84 551.40&#10;  Z"/>
<path fill="#111111" d="&#10;  M 308.91 558.67&#10;  L 306.95 558.67&#10;  A 0.11 0.11 0.0 0 1 306.84 558.56&#10;  L 306.84 543.33&#10;  A 0.11 0.11 0.0 0 1 306.95 543.22&#10;  L 309.97 543.22&#10;  A 0.11 0.11 0.0 0 1 310.08 543.30&#10;  L 314.27 556.05&#10;  A 0.11 0.11 0.0 0 0 314.48 556.05&#10;  L 318.87 543.24&#10;  A 0.11 0.11 0.0 0 1 318.98 543.17&#10;  L 321.82 543.17&#10;  A 0.11 0.11 0.0 0 1 321.93 543.28&#10;  L 321.93 558.55&#10;  A 0.11 0.11 0.0 0 1 321.82 558.66&#10;  L 320.12 558.66&#10;  A 0.11 0.11 0.0 0 1 320.01 558.55&#10;  L 320.01 546.03&#10;  A 0.11 0.11 0.0 0 0 319.90 545.92&#10;  L 319.90 545.92&#10;  A 0.11 0.11 0.0 0 0 319.79 545.99&#10;  L 315.47 558.62&#10;  A 0.11 0.11 0.0 0 1 315.36 558.69&#10;  L 313.45 558.69&#10;  A 0.11 0.11 0.0 0 1 313.34 558.61&#10;  L 309.24 546.12&#10;  A 0.11 0.11 0.0 0 0 309.02 546.15&#10;  L 309.02 558.56&#10;  A 0.11 0.11 0.0 0 1 308.91 558.67&#10;  Z"/>
<ellipse fill="#f9f4d8" cx="0.00" cy="0.00" transform="translate(532.08,550.92) rotate(90.6)" rx="6.43" ry="5.48"/>
<ellipse fill="#f9f4d8" cx="0.00" cy="0.00" transform="translate(587.81,550.93) rotate(91.1)" rx="6.45" ry="5.41"/>
<ellipse fill="#f9f4d8" cx="0.00" cy="0.00" transform="translate(668.51,550.92) rotate(91.6)" rx="6.39" ry="5.45"/>
<path fill="#f9f4d8" d="&#10;  M 347.70 545.22&#10;  A 0.38 0.38 0.0 0 1 348.08 544.84&#10;  L 353.15 544.82&#10;  A 2.53 1.95 -0.2 0 1 355.69 546.77&#10;  L 355.69 548.33&#10;  A 2.53 1.95 -0.2 0 1 353.17 550.28&#10;  L 348.10 550.30&#10;  A 0.38 0.38 0.0 0 1 347.72 549.92&#10;  L 347.70 545.22&#10;  Z"/>
<path fill="#f9f4d8" d="&#10;  M 547.33 545.31&#10;  A 0.54 0.54 0.0 0 1 547.87 544.77&#10;  L 552.41 544.76&#10;  A 3.08 2.65 -0.2 0 1 555.50 547.40&#10;  L 555.50 547.66&#10;  A 3.08 2.65 -0.2 0 1 552.43 550.32&#10;  L 547.89 550.33&#10;  A 0.54 0.54 0.0 0 1 547.35 549.79&#10;  L 547.33 545.31&#10;  Z"/>
<path fill="#f9f4d8" d="&#10;  M 565.98 545.22&#10;  A 0.44 0.44 0.0 0 1 566.42 544.78&#10;  L 570.45 544.78&#10;  A 2.89 2.49 -0.0 0 1 573.34 547.27&#10;  L 573.34 547.85&#10;  A 2.89 2.49 -0.0 0 1 570.45 550.34&#10;  L 566.42 550.34&#10;  A 0.44 0.44 0.0 0 1 565.98 549.90&#10;  L 565.98 545.22&#10;  Z"/>
<path fill="#f9f4d8" d="&#10;  M 603.08 545.37&#10;  A 0.57 0.57 0.0 0 1 603.65 544.80&#10;  L 608.47 544.80&#10;  A 2.71 2.26 -0.0 0 1 611.18 547.06&#10;  L 611.18 548.04&#10;  A 2.71 2.26 -0.0 0 1 608.47 550.30&#10;  L 603.65 550.30&#10;  A 0.57 0.57 0.0 0 1 603.08 549.73&#10;  L 603.08 545.37&#10;  Z"/>
<path fill="#f9f4d8" d="&#10;  M 331.22 551.78&#10;  L 333.48 546.09&#10;  A 0.32 0.32 0.0 0 1 334.08 546.12&#10;  L 335.83 551.98&#10;  A 0.32 0.32 0.0 0 1 335.51 552.40&#10;  L 331.50 552.22&#10;  A 0.32 0.32 0.0 0 1 331.22 551.78&#10;  Z"/>
<path fill="#f9f4d8" d="&#10;  M 462.83 551.85&#10;  L 464.90 545.95&#10;  A 0.37 0.37 0.0 0 1 465.60 545.96&#10;  L 467.46 551.93&#10;  A 0.37 0.37 0.0 0 1 467.10 552.41&#10;  L 463.17 552.34&#10;  A 0.37 0.37 0.0 0 1 462.83 551.85&#10;  Z"/>
<path fill="#f9f4d8" d="&#10;  M 624.93 546.11&#10;  Q 625.52 546.11 627.01 551.63&#10;  A 0.53 0.53 0.0 0 1 626.53 552.29&#10;  Q 625.87 552.33 624.90 552.33&#10;  Q 623.93 552.33 623.27 552.28&#10;  A 0.53 0.53 0.0 0 1 622.80 551.61&#10;  Q 624.33 546.11 624.93 546.11&#10;  Z"/>
</svg>